<?xml version="1.0" encoding="UTF-8" standalone="no"?>
<!-- Created with Inkscape (http://www.inkscape.org/) -->

<svg
   xmlns:dc="http://purl.org/dc/elements/1.1/"
   xmlns:cc="http://creativecommons.org/ns#"
   xmlns:rdf="http://www.w3.org/1999/02/22-rdf-syntax-ns#"
   xmlns:svg="http://www.w3.org/2000/svg"
   xmlns="http://www.w3.org/2000/svg"
   xmlns:sodipodi="http://sodipodi.sourceforge.net/DTD/sodipodi-0.dtd"
   xmlns:inkscape="http://www.inkscape.org/namespaces/inkscape"
   width="156.13808mm"
   height="38.099998mm"
   viewBox="0 0 156.13808 38.099998"
   version="1.1"
   id="svg396694"
   inkscape:version="0.92.4 (5da689c313, 2019-01-14)"
   sodipodi:docname="bluepark.svg">
  <defs
     id="defs396688">
    <clipPath
       id="clipPath397280"
       clipPathUnits="userSpaceOnUse">
      <path
         inkscape:connector-curvature="0"
         id="path397278"
         d="M 0,799.92 H 1600.08 V 0 H 0 Z" />
    </clipPath>
    <clipPath
       id="clipPath397376"
       clipPathUnits="userSpaceOnUse">
      <path
         inkscape:connector-curvature="0"
         id="path397374"
         d="M 0,799.92 H 1600.08 V 0 H 0 Z" />
    </clipPath>
    <clipPath
       id="clipPath397384"
       clipPathUnits="userSpaceOnUse">
      <path
         inkscape:connector-curvature="0"
         id="path397382"
         d="M 1600.08,-819.92 H 0 V -20 h 1600.08 z" />
    </clipPath>
    <clipPath
       id="clipPath397280-3"
       clipPathUnits="userSpaceOnUse">
      <path
         inkscape:connector-curvature="0"
         id="path397278-6"
         d="M 0,799.92 H 1600.08 V 0 H 0 Z" />
    </clipPath>
  </defs>
  <sodipodi:namedview
     id="base"
     pagecolor="#ffffff"
     bordercolor="#666666"
     borderopacity="1.0"
     inkscape:pageopacity="0.0"
     inkscape:pageshadow="2"
     inkscape:zoom="0.49497475"
     inkscape:cx="749.53297"
     inkscape:cy="-152.06359"
     inkscape:document-units="mm"
     inkscape:current-layer="layer1"
     showgrid="false"
     fit-margin-top="0"
     fit-margin-left="0"
     fit-margin-right="0"
     fit-margin-bottom="0"
     inkscape:window-width="1920"
     inkscape:window-height="1016"
     inkscape:window-x="0"
     inkscape:window-y="27"
     inkscape:window-maximized="1" />
  <metadata
     id="metadata396691">
    <rdf:RDF>
      <cc:Work
         rdf:about="">
        <dc:format>image/svg+xml</dc:format>
        <dc:type
           rdf:resource="http://purl.org/dc/dcmitype/StillImage" />
        <dc:title></dc:title>
      </cc:Work>
    </rdf:RDF>
  </metadata>
  <g
     inkscape:label="Camada 1"
     inkscape:groupmode="layer"
     id="layer1"
     transform="translate(-87.975182,-62.466231)">
    <g
       id="g397370"
       transform="matrix(0.35277777,0,0,-0.35277777,55.674387,498.57315)">
      <g
         id="g397372"
         clip-path="url(#clipPath397376)">
        <g
           id="g397378">
          <g
             id="g397380"
             clip-path="url(#clipPath397384)">
            <g
               id="g397386"
               transform="translate(299.623,-157.386)">
              <path
                 d="m 0,0 h -215.057 c -12.866,0 -23.297,10.43 -23.297,23.296 v 118.547 c 0,12.866 10.431,23.297 23.297,23.297 H 0 c 12.866,0 23.296,-10.431 23.296,-23.297 V 23.296 C 23.296,10.43 12.866,0 0,0"
                 style="fill:#ffffff;fill-opacity:1;fill-rule:nonzero;stroke:none"
                 id="path397388"
                 inkscape:connector-curvature="0" />
            </g>
          </g>
        </g>
      </g>
    </g>
    <g
       id="g397274"
       transform="matrix(0.23061165,0,0,-0.23061165,57.548512,173.75153)">
      <g
         id="g397276"
         clip-path="url(#clipPath397280-3)">
        <g
           id="g397282"
           transform="translate(204.114,457.487)">
          <path
             d="m 0,0 c -3.974,-5.106 -7.689,-10.358 -11.151,-15.745 -3.462,-5.392 -6.611,-10.925 -9.448,-16.598 -0.909,-1.591 -1.759,-3.178 -2.552,-4.767 -0.796,-1.59 -1.532,-3.178 -2.214,-4.766 6.355,2.156 12.625,4.598 18.81,7.32 6.185,2.723 12.228,5.618 18.129,8.682 3.857,1.929 7.577,4.026 11.15,6.297 3.576,2.27 6.949,4.824 10.13,7.662 1.362,1.246 2.809,2.749 4.34,4.511 1.533,1.758 2.41,3.601 2.639,5.531 0.11,1.021 -0.086,1.985 -0.598,2.894 C 38.727,1.928 38.044,2.75 37.194,3.489 36.342,4.226 35.432,4.879 34.472,5.447 33.505,6.014 32.624,6.469 31.831,6.809 27.857,8.397 23.662,9.133 19.234,9.021 14.808,8.908 10.439,8.282 6.128,7.15 4.991,6.014 3.914,4.852 2.893,3.659 1.873,2.469 0.907,1.248 0,0 m -33.875,-70.304 c -0.568,-2.042 -0.739,-4.425 -0.512,-7.148 5.219,0.455 10.412,1.136 15.576,2.042 5.165,0.91 10.241,2.158 15.235,3.745 2.495,0.681 5.219,1.505 8.172,2.468 2.95,0.964 5.815,2.128 8.595,3.489 2.78,1.363 5.364,2.922 7.746,4.682 2.384,1.759 4.257,3.83 5.619,6.213 1.702,2.95 2.04,5.303 1.02,7.064 -1.02,1.758 -2.666,3.12 -4.937,4.086 -2.271,0.962 -4.795,1.618 -7.575,1.957 -2.783,0.342 -5.079,0.512 -6.892,0.512 -4.656,-0.229 -9.423,-0.655 -14.3,-1.278 -4.88,-0.624 -9.704,-1.56 -14.471,-2.808 l -7.489,-2.893 h -0.171 c -1.475,-3.635 -2.694,-7.264 -3.658,-10.895 -0.966,-3.634 -1.617,-7.379 -1.958,-11.236 m -19.916,49.707 c 4.877,4.312 10.099,8.197 15.661,11.66 5.56,3.461 11.176,6.666 16.852,9.618 3.971,2.042 8.055,3.97 12.256,5.788 4.198,1.813 8.51,3.404 12.936,4.765 l 1.702,2.044 c 2.044,2.154 4.227,4.255 6.555,6.298 2.325,2.043 4.851,3.574 7.575,4.596 0.682,0.226 1.674,0.453 2.978,0.682 1.305,0.225 2.556,0.28 3.747,0.17 1.191,-0.115 2.182,-0.485 2.978,-1.107 0.793,-0.625 0.964,-1.676 0.512,-3.149 -0.231,-0.795 -0.742,-1.362 -1.535,-1.704 -0.793,-0.339 -1.646,-0.339 -2.552,0 -1.021,0.454 -2.101,0.568 -3.235,0.342 -1.134,-0.229 -2.296,-0.654 -3.488,-1.278 -1.193,-0.624 -2.359,-1.39 -3.49,-2.298 -1.137,-0.908 -2.158,-1.701 -3.064,-2.382 2.834,0.452 5.844,0.736 9.022,0.85 3.174,0.112 6.27,-0.142 9.277,-0.766 3.004,-0.624 5.758,-1.76 8.257,-3.404 2.493,-1.647 4.426,-4 5.787,-7.064 1.248,-2.838 1.333,-5.561 0.256,-8.17 -1.08,-2.613 -2.726,-5.023 -4.937,-7.236 -2.215,-2.212 -4.656,-4.199 -7.319,-5.957 -2.669,-1.761 -5.023,-3.208 -7.066,-4.342 -4.767,-2.952 -9.619,-5.674 -14.553,-8.17 -4.937,-2.497 -9.96,-4.88 -15.068,-7.15 5.108,1.022 10.241,1.674 15.406,1.959 5.165,0.281 9.9,-0.54 14.215,-2.469 2.495,-1.022 4.368,-2.469 5.619,-4.341 1.245,-1.873 1.955,-3.888 2.126,-6.042 0.171,-2.157 -0.171,-4.342 -1.02,-6.555 -0.853,-2.212 -2.13,-4.171 -3.832,-5.872 -4.198,-4.199 -9.249,-7.347 -15.149,-9.448 -5.901,-2.099 -11.635,-3.83 -17.194,-5.191 -9.871,-2.725 -19.916,-4.596 -30.128,-5.618 0.565,-1.587 1.418,-2.894 2.552,-3.916 0.906,-0.792 1.304,-1.587 1.191,-2.382 -0.114,-0.793 -0.509,-1.417 -1.191,-1.872 -0.679,-0.454 -1.504,-0.653 -2.467,-0.597 -0.967,0.058 -1.848,0.597 -2.638,1.617 -0.796,1.022 -1.421,2.102 -1.873,3.234 -0.455,1.136 -0.853,2.329 -1.191,3.575 -2.953,-0.34 -6.128,-0.51 -9.533,-0.51 -3.405,0 -6.583,0.229 -9.533,0.681 -0.91,0.115 -2.129,0.284 -3.661,0.511 -1.533,0.227 -3.064,0.595 -4.596,1.106 -1.532,0.51 -2.837,1.192 -3.914,2.044 -1.081,0.849 -1.617,1.901 -1.617,3.147 0,1.477 0.395,2.357 1.191,2.639 0.793,0.284 1.674,0.229 2.637,-0.17 0.964,-0.397 1.959,-0.907 2.979,-1.532 1.023,-0.622 1.816,-1.047 2.385,-1.276 3.174,-1.135 6.469,-1.815 9.871,-2.042 3.405,-0.228 6.81,-0.342 10.216,-0.342 h 3.063 c -0.113,4.313 0.48,8.682 1.789,13.108 1.301,4.425 2.577,8.282 3.828,11.575 l 0.853,2.554 c -0.796,-0.341 -1.592,-0.656 -2.386,-0.937 -0.795,-0.284 -1.645,-0.54 -2.551,-0.765 h -0.171 c -1.251,-0.229 -2.3,-0.144 -3.15,0.254 -0.849,0.396 -1.218,1.277 -1.105,2.639 0,0.793 0.367,1.473 1.105,2.042 0.737,0.567 1.618,1.049 2.638,1.447 1.024,0.396 2.129,0.707 3.32,0.936 1.191,0.226 2.24,0.454 3.149,0.681 l 2.215,0.512 c 1.926,4.425 3.999,8.737 6.213,12.936 2.211,4.197 4.565,8.341 7.063,12.427 2.382,3.971 4.824,7.915 7.319,11.83 2.496,3.915 5.165,7.687 8.001,11.321 -3.177,-1.251 -6.242,-2.554 -9.192,-3.916 -2.954,-1.362 -5.73,-2.724 -8.342,-4.085 -4.198,-2.042 -8.254,-4.34 -12.171,-6.894 -3.914,-2.554 -7.688,-5.362 -11.318,-8.426 -0.568,-0.455 -1.222,-1.108 -1.959,-1.959 -0.739,-0.849 -1.506,-1.701 -2.296,-2.552 -0.796,-0.851 -1.617,-1.591 -2.47,-2.213 -0.85,-0.625 -1.674,-0.881 -2.467,-0.766 -1.361,0.111 -2.243,0.793 -2.641,2.042 -0.398,1.248 -0.142,2.325 0.768,3.235"
             style="fill:#262424;fill-opacity:1;fill-rule:nonzero;stroke:none"
             id="path397284"
             inkscape:connector-curvature="0" />
        </g>
        <g
           id="g397286"
           transform="translate(279.012,427.017)">
          <path
             d="m 0,0 c 5.332,4.993 10.212,10.383 14.638,16.172 2.044,2.383 3.97,5.106 5.787,8.17 0.227,0.567 0.568,1.276 1.023,2.128 0.452,0.851 0.85,1.729 1.191,2.639 -1.592,-0.797 -3.093,-1.874 -4.511,-3.235 -1.421,-1.361 -2.584,-2.497 -3.49,-3.405 C 12.025,19.858 9.587,17.107 7.319,14.213 5.048,11.32 2.777,8.341 0.508,5.277 -0.742,3.461 -1.933,1.673 -3.064,-0.085 c -1.137,-1.761 -2.214,-3.549 -3.235,-5.362 1.021,0.793 2.07,1.673 3.15,2.637 C -2.072,-1.846 -1.023,-0.909 0,0 m -34.557,-23.321 c 3.515,1.587 6.921,3.345 10.212,5.277 3.292,1.928 6.583,4.027 9.874,6.298 1.59,3.177 3.346,6.241 5.279,9.192 1.927,2.951 3.8,5.844 5.616,8.682 1.927,2.609 3.857,5.247 5.787,7.915 1.93,2.666 3.917,5.303 5.958,7.915 1.702,2.271 3.547,4.568 5.534,6.895 1.984,2.325 4.28,4.226 6.892,5.703 1.248,0.681 2.78,1.162 4.596,1.446 1.813,0.282 3.064,-0.54 3.747,-2.468 0.451,-1.249 0.48,-2.469 0.085,-3.659 C 28.622,28.682 28.028,27.491 27.235,26.299 26.439,25.108 25.589,23.973 24.68,22.896 23.773,21.815 23.034,20.878 22.469,20.087 17.929,13.618 12.85,7.575 7.233,1.957 1.614,-3.661 -4.429,-8.852 -10.895,-13.619 c -0.571,-1.361 -1.222,-2.808 -1.959,-4.34 -0.738,-1.532 -1.389,-3.149 -1.958,-4.852 -0.568,-1.701 -0.963,-3.376 -1.19,-5.021 -0.228,-1.647 -0.171,-3.208 0.17,-4.681 1.248,0.226 2.382,0.396 3.405,0.51 0.906,0.112 1.757,0.197 2.552,0.256 0.793,0.055 1.305,0.141 1.533,0.256 3.405,0.68 6.75,1.587 10.042,2.722 3.291,1.133 6.525,2.384 9.703,3.746 0.907,0.225 1.984,0.68 3.235,1.361 1.248,0.683 2.324,0.737 3.235,0.171 1.247,-0.91 1.418,-1.732 0.511,-2.469 -0.91,-0.739 -1.762,-1.276 -2.555,-1.616 l -19.746,-7.32 c -1.93,-0.681 -3.803,-1.392 -5.616,-2.128 -1.817,-0.739 -3.69,-1.162 -5.62,-1.278 -1.702,-0.225 -3.064,0.031 -4.084,0.766 -1.02,0.738 -1.731,1.703 -2.129,2.895 -0.398,1.191 -0.54,2.495 -0.424,3.916 0.111,1.416 0.338,2.749 0.68,3.999 0.793,2.724 1.816,5.447 3.064,8.171 -4.653,-3.063 -9.534,-5.846 -14.638,-8.34 -1.137,-0.229 -2.069,0.141 -2.808,1.105 -0.739,0.964 -0.426,1.788 0.935,2.469"
             style="fill:#262424;fill-opacity:1;fill-rule:nonzero;stroke:none"
             id="path397288"
             inkscape:connector-curvature="0" />
        </g>
        <g
           id="g397290"
           transform="translate(294.499,403.696)">
          <path
             d="m 0,0 c 2.95,0.907 5.843,2.013 8.68,3.32 2.837,1.303 5.674,2.579 8.513,3.829 0.679,0.34 1.728,0.993 3.149,1.957 1.419,0.964 2.866,1.844 4.341,2.64 1.471,0.793 2.865,1.331 4.169,1.617 1.305,0.281 2.3,-0.085 2.979,-1.107 0.568,-0.91 0.654,-1.788 0.256,-2.639 C 31.688,8.767 31.092,7.916 30.299,7.064 29.506,6.213 28.653,5.417 27.747,4.681 26.837,3.942 26.154,3.345 25.703,2.893 24,1.19 22.354,-0.681 20.769,-2.723 c -1.592,-2.044 -2.385,-4.201 -2.385,-6.469 2.044,0 4.198,0.51 6.469,1.532 2.268,1.021 4.255,1.871 5.958,2.554 5.445,2.494 10.835,5.332 16.169,8.511 2.951,1.813 5.62,3.63 8.001,5.446 1.024,0.682 2.07,0.682 3.15,0 C 59.208,8.17 59.635,7.149 59.407,5.787 59.18,4.766 58.699,3.771 57.96,2.808 57.221,1.843 56.57,0.851 56.005,-0.17 c -0.571,-0.911 -1.109,-2.158 -1.617,-3.746 -0.512,-1.59 -0.54,-3.008 -0.086,-4.254 1.248,-0.683 2.78,-0.767 4.596,-0.256 1.814,0.51 3.289,0.936 4.426,1.276 4.877,1.702 9.416,3.631 13.617,5.788 0.793,0.34 1.788,0.821 2.979,1.447 1.191,0.622 2.069,0.366 2.638,-0.766 0.568,-1.022 0.483,-1.788 -0.253,-2.298 -0.742,-0.51 -1.507,-0.937 -2.3,-1.276 L 68.77,-9.534 c -2.382,-1.02 -4.994,-2.185 -7.831,-3.488 -2.836,-1.307 -5.673,-1.618 -8.51,-0.937 -2.043,0.567 -3.209,1.73 -3.491,3.491 -0.283,1.758 -0.141,3.43 0.427,5.02 l 2.552,6.128 c -2.95,-1.361 -5.814,-2.781 -8.595,-4.254 -2.782,-1.477 -5.648,-2.839 -8.598,-4.086 -1.247,-0.681 -2.723,-1.506 -4.425,-2.469 -1.703,-0.965 -3.487,-1.871 -5.361,-2.723 -1.873,-0.851 -3.718,-1.477 -5.534,-1.873 -1.816,-0.396 -3.402,-0.311 -4.767,0.256 -1.361,0.452 -2.069,1.331 -2.125,2.637 -0.06,1.305 0.256,2.81 0.935,4.511 0.682,1.703 1.645,3.518 2.893,5.447 1.248,1.929 2.556,3.802 3.917,5.619 L 16.169,1.873 C 11.517,0.17 8.171,-1.136 6.128,-2.042 4.084,-2.952 2.495,-3.519 1.361,-3.745 0.682,-3.974 0.142,-3.916 -0.256,-3.574 c -0.395,0.339 -0.679,0.736 -0.85,1.191 -0.17,0.451 -0.17,0.906 0,1.361 C -0.935,-0.569 -0.565,-0.229 0,0"
             style="fill:#262424;fill-opacity:1;fill-rule:nonzero;stroke:none"
             id="path397292"
             inkscape:connector-curvature="0" />
        </g>
        <g
           id="g397294"
           transform="translate(392.204,408.462)">
          <path
             d="M 0,0 C 2.726,0.112 5.364,0.793 7.916,2.042 10.472,3.29 12.711,4.877 14.641,6.809 13.049,7.376 11.492,7.545 9.96,7.319 8.428,7.09 7.006,6.639 5.705,5.958 4.397,5.277 3.235,4.396 2.214,3.319 1.194,2.24 0.455,1.133 0,0 m -17.361,-4.766 c 2.041,1.021 4.17,2.154 6.384,3.405 2.212,1.246 4.451,2.323 6.722,3.233 1.475,2.609 3.576,4.738 6.299,6.384 2.723,1.644 5.62,2.75 8.684,3.32 1.585,0.226 3.43,0.226 5.53,0 2.098,-0.229 3.715,-1.081 4.852,-2.554 0.793,-0.91 0.992,-1.873 0.594,-2.894 C 21.306,5.106 20.627,4.142 19.664,3.235 18.697,2.325 17.62,1.502 16.429,0.766 15.238,0.027 14.357,-0.512 13.792,-0.851 11.748,-2.102 9.505,-3.037 7.066,-3.659 4.625,-4.285 2.158,-4.485 -0.338,-4.256 H -1.02 c 0.452,-2.497 1.475,-4.426 3.064,-5.787 1.589,-1.362 3.462,-2.356 5.62,-2.979 2.154,-0.625 4.394,-0.881 6.721,-0.766 2.325,0.111 4.454,0.34 6.384,0.681 2.723,0.567 5.389,1.276 8.001,2.128 2.609,0.851 5.162,1.842 7.661,2.978 1.133,0.567 2.296,1.107 3.49,1.617 1.191,0.51 2.296,1.049 3.317,1.618 0.792,0.225 1.617,0.112 2.47,-0.341 0.85,-0.455 0.935,-1.191 0.256,-2.213 -0.572,-0.91 -1.361,-1.532 -2.385,-1.872 -1.02,-0.341 -1.93,-0.681 -2.723,-1.022 l -8.513,-3.744 C 27.125,-16 21.96,-17.703 16.855,-19.064 c -2.274,-0.454 -4.57,-0.598 -6.895,-0.427 -2.328,0.171 -4.486,0.681 -6.469,1.532 -1.987,0.852 -3.775,2.069 -5.361,3.659 -1.592,1.589 -2.726,3.632 -3.405,6.129 -0.227,0.908 -0.427,1.814 -0.597,2.724 -0.171,0.906 -0.142,1.758 0.085,2.554 -1.248,-0.57 -2.466,-1.221 -3.658,-1.959 -1.194,-0.739 -2.243,-1.391 -3.149,-1.957 -0.572,-0.229 -1.307,-0.655 -2.214,-1.277 -0.91,-0.624 -1.817,-0.654 -2.723,-0.085 -0.682,0.453 -0.992,1.077 -0.938,1.873 0.06,0.793 0.426,1.303 1.108,1.532"
             style="fill:#262424;fill-opacity:1;fill-rule:nonzero;stroke:none"
             id="path397296"
             inkscape:connector-curvature="0" />
        </g>
        <g
           id="g397298"
           transform="translate(550.342,454.082)">
          <path
             d="m 0,0 c -4.315,-5.106 -8.342,-10.356 -12.088,-15.745 -3.744,-5.392 -7.433,-10.923 -11.063,-16.596 -2.84,-4.541 -5.591,-9.082 -8.257,-13.619 -2.669,-4.54 -5.363,-9.136 -8.086,-13.789 6.014,0.793 12.029,1.984 18.042,3.575 8.514,2.044 16.853,4.708 25.025,8.001 8.171,3.29 15.888,7.431 23.151,12.426 1.702,1.133 3.66,2.554 5.872,4.255 2.214,1.703 4.343,3.603 6.383,5.703 2.044,2.1 3.917,4.341 5.62,6.724 1.699,2.383 2.833,4.767 3.402,7.15 0.568,2.383 0.452,4.737 -0.338,7.064 -0.796,2.326 -2.612,4.453 -5.449,6.383 C 38.923,3.801 35.151,5.193 30.893,5.703 26.638,6.213 22.525,6.355 18.551,6.128 15.942,5.901 13.418,5.645 10.977,5.362 8.535,5.078 6.011,4.653 3.402,4.086 Z m -43.92,-10.554 c 5.332,3.632 11.037,6.665 17.108,9.107 6.068,2.441 12.171,4.623 18.299,6.554 1.589,0.568 3.206,1.078 4.852,1.533 1.642,0.451 3.26,0.851 4.852,1.191 l 3.913,4.427 c 2.044,2.154 4.17,4.169 6.384,6.042 2.215,1.872 4.622,3.601 7.234,5.192 0.682,0.34 1.646,0.851 2.894,1.532 1.247,0.681 2.555,1.247 3.916,1.703 1.362,0.451 2.666,0.68 3.914,0.68 1.248,0 2.215,-0.4 2.894,-1.192 0.91,-0.91 1.08,-1.987 0.512,-3.234 -0.569,-1.25 -1.533,-1.873 -2.894,-1.873 -3.974,0.113 -7.774,-1.029 -11.407,-3.422 -3.632,-2.394 -7.037,-5.131 -10.212,-8.211 3.63,0.702 7.234,1.229 10.809,1.577 3.577,0.348 7.177,0.409 10.81,0.184 2.95,-0.229 5.872,-0.796 8.766,-1.703 2.893,-0.91 5.502,-2.186 7.83,-3.83 2.325,-1.646 4.198,-3.718 5.619,-6.213 1.416,-2.497 2.127,-5.391 2.127,-8.682 0,-3.064 -0.679,-5.958 -2.041,-8.681 -1.365,-2.724 -3.095,-5.251 -5.193,-7.574 -2.101,-2.328 -4.4,-4.486 -6.896,-6.47 -2.495,-1.986 -4.88,-3.717 -7.148,-5.191 -10.667,-7.038 -22.187,-12.711 -34.554,-17.022 -12.373,-4.315 -24.854,-7.605 -37.45,-9.873 l -3.065,-0.681 -1.873,-3.235 -9.363,-17.533 c -0.568,-0.908 -1.165,-2.07 -1.787,-3.49 -0.626,-1.418 -1.618,-2.24 -2.979,-2.469 -1.251,-0.11 -2.211,0.369 -2.894,1.447 -0.679,1.08 -0.739,2.129 -0.17,3.15 1.93,3.633 4.027,7.208 6.299,10.723 2.267,3.519 4.539,7.095 6.81,10.724 -1.703,-0.339 -3.405,-0.595 -5.108,-0.766 -1.702,-0.168 -3.348,-0.366 -4.937,-0.595 -1.134,-0.112 -2.328,-0.196 -3.573,-0.254 -1.251,-0.057 -2.157,0.595 -2.726,1.957 -0.455,0.906 -0.338,1.843 0.342,2.808 0.682,0.963 1.531,1.388 2.551,1.278 2.726,-0.116 5.507,-0.086 8.343,0.085 2.837,0.169 5.616,0.425 8.342,0.766 l 3.744,5.958 c 3.632,5.899 7.233,11.771 10.809,17.617 3.575,5.844 7.291,11.661 11.151,17.448 2.495,3.631 5.047,7.262 7.66,10.895 2.609,3.63 5.388,7.205 8.342,10.724 -1.251,-0.229 -2.47,-0.51 -3.661,-0.851 -1.191,-0.34 -2.357,-0.74 -3.49,-1.191 -8.172,-2.613 -15.889,-6.128 -23.151,-10.554 -0.569,-0.341 -1.251,-0.881 -2.041,-1.617 -0.796,-0.741 -1.617,-1.447 -2.47,-2.13 -0.85,-0.68 -1.731,-1.275 -2.638,-1.786 -0.909,-0.511 -1.702,-0.655 -2.384,-0.426 -1.362,0.341 -2.155,1.163 -2.382,2.468 -0.228,1.304 0.227,2.299 1.361,2.979"
             style="fill:#262424;fill-opacity:1;fill-rule:nonzero;stroke:none"
             id="path397300"
             inkscape:connector-curvature="0" />
        </g>
        <g
           id="g397302"
           transform="translate(590.342,403.526)">
          <path
             d="m 0,0 c 1.361,0.68 3.092,1.559 5.193,2.639 2.098,1.077 4.34,2.127 6.722,3.149 2.385,1.02 4.681,1.984 6.896,2.894 2.21,0.906 4.055,1.644 5.53,2.212 0.793,0.341 2.215,0.852 4.259,1.532 2.04,0.681 4.194,1.303 6.465,1.873 2.271,0.566 4.397,0.962 6.384,1.191 1.984,0.226 3.431,0.055 4.341,-0.51 1.361,-1.251 1.617,-2.383 0.767,-3.405 C 45.705,10.553 44.655,9.929 43.408,9.704 L 35.748,8.852 C 34.156,8.397 32.823,7.857 31.746,7.235 30.668,6.609 29.449,5.843 28.088,4.937 27.519,4.482 26.527,3.545 25.109,2.127 c -1.422,-1.42 -2.808,-2.952 -4.17,-4.596 -1.364,-1.646 -2.441,-3.233 -3.234,-4.765 -0.796,-1.532 -0.796,-2.639 0,-3.32 0.679,-0.569 1.785,-0.681 3.316,-0.341 1.532,0.341 3.093,0.852 4.682,1.532 1.589,0.681 3.064,1.388 4.428,2.129 1.362,0.736 2.268,1.276 2.723,1.616 3.289,2.044 5.958,4.198 8.001,6.469 1.021,1.132 2.126,1.276 3.317,0.426 1.194,-0.851 1.56,-2.017 1.109,-3.49 -0.231,-0.794 -0.626,-1.477 -1.194,-2.042 -0.568,-0.57 -1.106,-1.107 -1.614,-1.618 -0.512,-0.511 -0.938,-1.22 -1.28,-2.127 -0.454,-0.796 -0.568,-1.392 -0.338,-1.788 0.225,-0.4 0.623,-0.654 1.191,-0.766 1.586,-0.229 3.573,-0.115 5.958,0.34 2.382,0.453 4.852,1.078 7.404,1.873 2.552,0.793 5.079,1.729 7.575,2.808 2.495,1.077 4.653,2.071 6.469,2.98 0.452,0.111 1.077,0.425 1.873,0.935 0.793,0.512 1.618,0.937 2.467,1.278 0.853,0.34 1.674,0.51 2.47,0.51 0.79,0 1.362,-0.341 1.7,-1.022 0.455,-0.68 0.426,-1.306 -0.086,-1.871 -0.508,-0.57 -1.219,-1.051 -2.126,-1.447 -0.909,-0.399 -1.815,-0.766 -2.722,-1.107 -0.91,-0.341 -1.592,-0.626 -2.044,-0.851 -1.93,-0.91 -3.86,-1.788 -5.787,-2.638 -1.933,-0.851 -3.917,-1.733 -5.957,-2.639 -1.365,-0.569 -2.84,-1.25 -4.429,-2.042 -1.589,-0.797 -3.231,-1.474 -4.934,-2.044 -1.703,-0.566 -3.434,-0.962 -5.193,-1.191 -1.759,-0.226 -3.377,-0.055 -4.852,0.51 -1.93,0.796 -3.064,1.9 -3.405,3.32 -0.338,1.417 -0.284,2.92 0.17,4.511 l -4.596,-2.723 c -1.93,-1.137 -3.941,-2.298 -6.042,-3.491 -2.101,-1.19 -4.284,-1.898 -6.555,-2.127 -2.041,-0.112 -3.857,0.34 -5.446,1.361 -1.588,1.022 -2.441,2.61 -2.552,4.767 0,1.133 0.452,2.579 1.362,4.341 0.906,1.757 2.068,3.575 3.49,5.446 1.415,1.873 2.979,3.601 4.681,5.192 1.7,1.589 3.289,2.78 4.764,3.576 C 24.91,7.772 23.63,7.262 21.875,6.469 20.112,5.673 18.128,4.708 15.917,3.575 13.703,2.438 11.375,1.277 8.936,0.085 6.494,-1.106 4.254,-2.213 2.214,-3.235 1.643,-3.574 1.077,-3.66 0.512,-3.489 c -0.569,0.171 -0.992,0.451 -1.277,0.851 -0.284,0.396 -0.398,0.851 -0.341,1.362 C -1.049,-0.767 -0.679,-0.34 0,0"
             style="fill:#262424;fill-opacity:1;fill-rule:nonzero;stroke:none"
             id="path397304"
             inkscape:connector-curvature="0" />
        </g>
        <g
           id="g397306"
           transform="translate(665.411,403.696)">
          <path
             d="m 0,0 c 2.382,1.248 4.738,2.495 7.063,3.745 2.325,1.247 4.852,2.666 7.575,4.256 -0.227,2.154 0.426,4.197 1.958,6.128 1.532,1.928 3.49,2.835 5.873,2.723 1.589,-0.229 2.609,-1.022 3.063,-2.383 0.455,-1.362 0.228,-2.668 -0.678,-3.916 -0.911,-1.361 -2.101,-2.497 -3.576,-3.404 0.792,-0.454 1.759,-0.68 2.893,-0.68 2.385,-0.229 4.88,0.196 7.49,1.276 2.609,1.077 4.937,2.24 6.981,3.489 2.043,0.681 3.344,0.454 3.913,-0.681 0.569,-1.136 0.341,-2.497 -0.679,-4.084 -0.568,-0.91 -1.223,-2.072 -1.959,-3.49 -0.738,-1.42 -1.361,-2.867 -1.873,-4.341 -0.508,-1.476 -0.793,-2.893 -0.849,-4.256 -0.06,-1.361 0.366,-2.442 1.276,-3.235 0.565,-0.681 2.069,-0.681 4.511,0 2.438,0.683 5.702,1.815 9.789,3.405 1.361,0.568 2.748,1.219 4.169,1.959 1.419,0.736 2.865,1.447 4.341,2.127 0.341,0.111 0.852,0.367 1.532,0.766 0.682,0.397 1.333,0.681 1.958,0.852 0.623,0.168 1.191,0.168 1.703,0 0.508,-0.171 0.764,-0.766 0.764,-1.788 0,-0.569 -0.256,-1.08 -0.764,-1.532 -0.512,-0.455 -1.08,-0.852 -1.703,-1.191 -0.625,-0.341 -1.276,-0.625 -1.958,-0.851 -0.68,-0.229 -1.191,-0.4 -1.532,-0.512 l -7.149,-3.235 c -1.251,-0.681 -2.808,-1.532 -4.681,-2.552 -1.873,-1.022 -3.775,-1.873 -5.701,-2.554 -1.934,-0.681 -3.807,-1.022 -5.62,-1.022 -1.817,0 -3.234,0.738 -4.255,2.214 -0.568,0.792 -0.91,1.673 -1.021,2.638 -0.116,0.963 -0.085,1.928 0.086,2.894 0.167,0.963 0.394,1.928 0.679,2.895 0.281,0.962 0.537,1.898 0.768,2.808 l 1.361,5.618 C 35.18,3.97 34.017,3.686 32.257,3.234 30.498,2.78 28.597,2.468 26.556,2.298 24.512,2.127 22.554,2.154 20.684,2.383 18.811,2.609 17.417,3.345 16.511,4.596 14.581,3.574 12.992,2.723 11.744,2.042 10.497,1.361 9.217,0.622 7.916,-0.17 6.608,-0.965 5.56,-1.591 4.767,-2.042 4.084,-2.271 3.292,-2.698 2.382,-3.32 1.472,-3.944 0.682,-4.029 0,-3.574 c -0.683,0.451 -1.02,1.077 -1.02,1.871 0,0.793 0.337,1.362 1.02,1.703"
             style="fill:#262424;fill-opacity:1;fill-rule:nonzero;stroke:none"
             id="path397308"
             inkscape:connector-curvature="0" />
        </g>
        <g
           id="g397310"
           transform="translate(780.823,442.167)">
          <path
             d="M 0,0 C 1.361,1.474 2.833,3.091 4.426,4.852 6.015,6.61 7.376,8.453 8.51,10.383 5.673,8.792 3.118,6.61 0.85,3.83 -1.421,1.047 -3.405,-1.932 -5.108,-5.106 Z m -14.979,-37.109 c 3.63,0.112 7.003,0.878 10.127,2.297 3.121,1.419 5.873,3.433 8.257,6.043 -1.023,0 -2.072,-0.143 -3.149,-0.425 -1.08,-0.284 -2.072,-0.539 -2.979,-0.765 -1.023,-0.229 -2.274,-0.711 -3.746,-1.447 -1.475,-0.74 -2.922,-1.506 -4.341,-2.299 -1.42,-0.795 -2.668,-1.531 -3.746,-2.212 -1.08,-0.681 -1.731,-1.08 -1.955,-1.192 z m -36.43,-1.532 c 6.355,3.176 12.455,6.808 18.299,10.894 5.843,4.086 11.491,8.341 16.937,12.767 l 2.894,2.553 c 1.702,3.29 3.49,6.58 5.363,9.873 1.874,3.29 3.886,6.47 6.043,9.533 1.361,1.929 2.865,3.83 4.511,5.702 1.642,1.873 3.601,3.32 5.872,4.341 0.682,0.34 1.503,0.568 2.47,0.682 0.96,0.112 1.842,0.085 2.638,-0.086 0.793,-0.17 1.472,-0.54 2.043,-1.107 0.566,-0.569 0.794,-1.42 0.679,-2.552 C 16.227,12.937 15.914,11.942 15.405,10.98 14.894,10.013 14.269,9.107 13.532,8.255 12.793,7.404 12.025,6.553 11.236,5.703 10.44,4.852 9.701,4.086 9.021,3.405 7.091,1.474 5.133,-0.455 3.149,-2.383 1.163,-4.315 -0.853,-6.242 -2.894,-8.17 c -1.25,-1.138 -2.498,-2.298 -3.746,-3.491 -1.251,-1.191 -2.498,-2.297 -3.743,-3.319 l -10.215,-20.086 c 1.134,0.792 2.268,1.587 3.405,2.382 1.134,0.793 2.325,1.532 3.576,2.214 1.472,0.907 3.149,1.927 5.019,3.064 1.873,1.133 3.831,2.128 5.875,2.979 2.041,0.851 4.11,1.362 6.213,1.532 2.098,0.169 4,-0.256 5.702,-1.278 1.02,-0.568 1.643,-1.249 1.873,-2.042 0.225,-0.794 0.225,-1.617 0,-2.468 -0.23,-0.852 -0.625,-1.676 -1.193,-2.469 -0.569,-0.794 -1.192,-1.532 -1.871,-2.213 -3.181,-2.722 -6.838,-4.71 -10.98,-5.957 -4.144,-1.249 -8.313,-1.872 -12.512,-1.872 1.928,-2.272 4.199,-4.116 6.808,-5.533 2.609,-1.421 5.449,-1.901 8.513,-1.446 3.97,0.566 7.83,1.557 11.573,2.979 3.746,1.417 7.376,3.09 10.895,5.021 0.569,0.34 1.305,0.822 2.215,1.446 0.906,0.623 1.812,0.707 2.722,0.256 0.566,-0.341 0.878,-0.88 0.935,-1.617 0.057,-0.739 -0.253,-1.335 -0.935,-1.788 -0.455,-0.339 -0.881,-0.595 -1.276,-0.766 -0.398,-0.169 -0.824,-0.37 -1.276,-0.595 -1.592,-0.91 -3.178,-1.762 -4.766,-2.555 -1.593,-0.794 -3.179,-1.531 -4.768,-2.212 -2.498,-1.249 -4.993,-2.442 -7.489,-3.575 -2.498,-1.135 -4.993,-1.873 -7.489,-2.212 -2.499,-0.341 -4.997,-0.198 -7.49,0.425 -2.498,0.622 -4.937,2.07 -7.322,4.342 -1.248,1.132 -2.41,2.383 -3.487,3.744 -1.08,1.362 -2.072,2.723 -2.979,4.086 -1.137,-1.021 -2.214,-2.102 -3.234,-3.234 -1.024,-1.136 -1.987,-2.272 -2.894,-3.405 -0.341,-0.569 -0.711,-1.081 -1.109,-1.533 -0.398,-0.454 -0.878,-0.965 -1.447,-1.531 -0.909,-0.911 -1.844,-1.506 -2.808,-1.789 -0.966,-0.284 -1.731,0.539 -2.299,2.469 -0.338,0.793 -0.338,1.474 0,2.044 0.341,0.566 0.739,1.191 1.194,1.872 l 5.446,7.66 c 1.702,2.495 3.259,4.992 4.681,7.489 1.418,2.496 2.865,4.992 4.34,7.491 l 1.702,2.893 c -2.156,-1.702 -4.314,-3.319 -6.468,-4.852 -2.155,-1.531 -4.312,-3.092 -6.467,-4.681 -2.498,-1.7 -4.965,-3.318 -7.407,-4.85 -2.442,-1.532 -5.019,-3.094 -7.745,-4.682 -0.569,-0.454 -1.334,-1.021 -2.296,-1.702 -0.967,-0.68 -1.902,-0.909 -2.809,-0.68 -1.023,0 -1.646,0.481 -1.873,1.446 -0.228,0.963 0.171,1.673 1.191,2.128"
             style="fill:#262424;fill-opacity:1;fill-rule:nonzero;stroke:none"
             id="path397312"
             inkscape:connector-curvature="0" />
        </g>
        <g
           id="g397314"
           transform="translate(170.242,387.184)">
          <path
             d="m 0,0 c -0.571,-2.039 -0.739,-4.421 -0.518,-7.141 5.225,0.451 10.415,1.131 15.582,2.039 5.162,0.912 10.241,2.161 15.235,3.742 2.496,0.681 5.219,1.508 8.172,2.473 2.947,0.966 5.812,2.133 8.592,3.492 2.786,1.362 5.367,2.915 7.749,4.68 2.384,1.755 4.254,3.824 5.613,6.214 1.705,2.95 2.043,5.303 1.027,7.067 -1.027,1.747 -2.67,3.116 -4.938,4.081 -2.274,0.967 -4.795,1.618 -7.575,1.959 -2.782,0.341 -5.082,0.513 -6.895,0.513 -4.653,-0.237 -9.423,-0.661 -14.3,-1.286 C 22.87,27.208 18.043,26.281 13.276,25.03 L 5.791,22.134 H 5.616 C 4.138,18.495 2.922,14.873 1.958,11.242 0.992,7.611 0.338,3.862 0,0"
             style="fill:#79c4f1;fill-opacity:1;fill-rule:nonzero;stroke:none"
             id="path397316"
             inkscape:connector-curvature="0" />
        </g>
        <g
           id="g397318"
           transform="translate(204.11,457.492)">
          <path
             d="m 0,0 c -3.967,-5.101 -7.682,-10.35 -11.147,-15.745 -3.459,-5.395 -6.612,-10.929 -9.445,-16.591 -0.907,-1.601 -1.762,-3.18 -2.555,-4.77 -0.796,-1.59 -1.533,-3.181 -2.208,-4.762 6.349,2.151 12.622,4.587 18.804,7.306 6.185,2.731 12.234,5.627 18.128,8.687 3.857,1.932 7.581,4.027 11.157,6.306 3.57,2.261 6.949,4.816 10.127,7.648 1.365,1.258 2.808,2.756 4.34,4.514 1.529,1.762 2.41,3.612 2.638,5.532 0.11,1.021 -0.089,1.986 -0.597,2.896 -0.512,0.911 -1.194,1.737 -2.041,2.473 -0.856,0.725 -1.765,1.379 -2.726,1.957 -0.963,0.56 -1.841,1.02 -2.638,1.361 C 27.861,8.393 23.666,9.137 19.24,9.026 14.815,8.907 10.443,8.283 6.134,7.152 4.997,6.011 3.917,4.854 2.9,3.658 1.876,2.472 0.913,1.25 0,0"
             style="fill:#486baf;fill-opacity:1;fill-rule:nonzero;stroke:none"
             id="path397320"
             inkscape:connector-curvature="0" />
        </g>
        <g
           id="g397322"
           transform="translate(550.342,454.091)">
          <path
             d="m 0,0 c -4.315,-5.102 -8.342,-10.359 -12.088,-15.754 -3.744,-5.388 -7.43,-10.922 -11.066,-16.592 -2.827,-4.541 -5.591,-9.082 -8.254,-13.622 -2.666,-4.532 -5.36,-9.127 -8.086,-13.779 6.014,0.791 12.035,1.985 18.046,3.568 8.516,2.039 16.849,4.705 25.03,8.006 8.169,3.28 15.876,7.426 23.145,12.427 1.696,1.129 3.664,2.546 5.872,4.245 2.214,1.701 4.346,3.614 6.387,5.709 2.04,2.105 3.907,4.338 5.613,6.719 1.699,2.39 2.837,4.77 3.405,7.152 0.569,2.38 0.455,4.734 -0.341,7.067 -0.789,2.325 -2.612,4.459 -5.449,6.38 C 38.932,3.805 35.154,5.193 30.899,5.699 26.645,6.213 22.525,6.351 18.555,6.131 15.936,5.892 13.418,5.644 10.98,5.359 8.538,5.075 6.011,4.65 3.405,4.08 Z"
             style="fill:#486baf;fill-opacity:1;fill-rule:nonzero;stroke:none"
             id="path397324"
             inkscape:connector-curvature="0" />
        </g>
        <g
           id="g397326"
           transform="translate(303.028,347.733)">
          <path
             d="m 0,0 v -14.08 h 0.989 c 0.47,0 0.853,0.163 1.15,0.488 0.297,0.325 0.445,0.8 0.445,1.425 v 10.559 c 0,0.611 -0.107,1.031 -0.322,1.262 C 2.044,-0.115 1.621,0 0.989,0 Z m -4.214,0.021 h -1.2 c -0.148,0.082 -0.224,0.168 -0.224,0.265 0,0.08 0.076,0.163 0.224,0.243 h 6.4 c 1.585,0 2.959,-0.675 4.125,-2.027 1.162,-1.35 1.747,-3.191 1.747,-5.526 0,-1.344 -0.224,-2.539 -0.67,-3.583 -0.448,-1.046 -1.108,-1.908 -1.987,-2.587 -0.527,-0.408 -1.346,-0.801 -2.454,-1.18 1.238,-0.366 2.101,-0.719 2.584,-1.058 0.821,-0.569 1.431,-1.255 1.829,-2.053 0.398,-0.801 0.594,-1.839 0.594,-3.112 v -7.444 c 0,-0.339 0.057,-0.576 0.163,-0.712 0.108,-0.136 0.25,-0.202 0.427,-0.202 0.272,0 0.515,0.169 0.733,0.509 0.354,0.541 0.578,1.519 0.673,2.929 0.013,0.245 0.051,0.408 0.11,0.488 l 0.193,0.122 c 0.082,0 0.152,-0.048 0.206,-0.142 0.066,-0.109 0.1,-0.311 0.1,-0.61 0,-1.507 -0.363,-2.669 -1.086,-3.49 -0.723,-0.822 -1.633,-1.231 -2.726,-1.231 -0.976,0 -1.712,0.252 -2.214,0.752 -0.499,0.503 -0.749,1.214 -0.749,2.137 v 10.765 c 0,0.923 -0.23,1.54 -0.686,1.851 -0.271,0.177 -0.903,0.266 -1.898,0.266 v -14.957 h 0.995 c 0.111,0 0.196,-0.025 0.256,-0.078 l 0.092,-0.176 -0.092,-0.176 c -0.06,-0.052 -0.145,-0.079 -0.256,-0.079 h -6.409 l -0.202,0.068 -0.082,0.187 0.082,0.186 0.202,0.068 h 1.2 z"
             style="fill:#262424;fill-opacity:1;fill-rule:nonzero;stroke:none"
             id="path397328"
             inkscape:connector-curvature="0" />
        </g>
        <g
           id="g397330"
           transform="translate(344.149,329.054)">
          <path
             d="m 0,0 v 8.668 c 0,0.558 -0.107,0.978 -0.326,1.262 -0.145,0.203 -0.366,0.305 -0.663,0.305 -0.297,0 -0.556,-0.129 -0.777,-0.386 C -1.987,9.59 -2.098,9.197 -2.098,8.668 V 0 Z m -2.098,-0.549 v -7.57 c 0,-1.18 0.136,-1.961 0.408,-2.339 0.202,-0.287 0.533,-0.429 0.998,-0.429 0.758,0 1.437,0.429 2.034,1.283 0.989,1.437 1.519,3.397 1.586,5.88 0.012,0.815 0.051,1.275 0.114,1.384 0.06,0.109 0.145,0.162 0.252,0.162 0.095,0 0.171,-0.039 0.225,-0.121 0.066,-0.109 0.101,-0.367 0.101,-0.774 0,-2.414 -0.424,-4.447 -1.27,-6.094 -0.85,-1.648 -1.994,-2.473 -3.431,-2.473 -1.342,0 -2.454,0.635 -3.336,1.903 -0.884,1.268 -1.323,4.02 -1.323,8.251 v 2.991 c 0,3.243 0.597,5.705 1.791,7.387 0.853,1.194 1.886,1.791 3.093,1.791 1.437,0 2.545,-0.766 3.326,-2.299 C 3.25,6.85 3.642,4.985 3.642,2.788 v -3.337 z"
             style="fill:#262424;fill-opacity:1;fill-rule:nonzero;stroke:none"
             id="path397332"
             inkscape:connector-curvature="0" />
        </g>
        <g
           id="g397334"
           transform="translate(376.233,319.022)">
          <path
             d="m 0,0 c -0.256,-0.204 -0.569,-0.556 -0.935,-1.058 -0.272,-0.367 -0.474,-0.55 -0.609,-0.55 l -0.143,0.062 -0.063,0.183 v 9.524 c 0,0.094 0.025,0.166 0.073,0.213 l 0.174,0.071 0.183,-0.082 c 0.037,-0.054 0.072,-0.27 0.101,-0.649 0.174,-2.627 0.622,-4.819 1.342,-6.578 0.515,-1.273 1.125,-1.908 1.832,-1.908 0.351,0 0.67,0.172 0.954,0.518 0.288,0.346 0.43,0.845 0.43,1.495 0,0.746 -0.161,1.659 -0.48,2.738 C 2.54,5.057 1.87,6.725 0.847,8.984 c -1.027,2.26 -1.684,3.89 -1.974,4.894 -0.294,1.003 -0.44,1.886 -0.44,2.645 0,1.248 0.345,2.259 1.03,3.033 0.682,0.773 1.481,1.159 2.388,1.159 0.815,0 1.602,-0.372 2.363,-1.119 0.202,0.138 0.509,0.407 0.916,0.808 0.23,0.207 0.385,0.311 0.468,0.311 L 5.739,20.674 5.8,20.491 V 11.904 C 5.8,11.809 5.774,11.735 5.717,11.681 L 5.534,11.599 5.351,11.7 C 5.313,11.768 5.278,11.972 5.25,12.31 5.073,14.813 4.694,16.843 4.109,18.4 3.689,19.482 3.14,20.024 2.464,20.024 2.082,20.024 1.763,19.881 1.507,19.596 1.248,19.312 1.122,18.924 1.122,18.437 1.122,17.201 1.927,14.97 3.541,11.741 4.628,9.598 5.367,7.889 5.758,6.613 6.153,5.338 6.349,4.212 6.349,3.236 6.349,1.756 5.97,0.58 5.209,-0.295 4.451,-1.17 3.569,-1.608 2.565,-1.608 2.05,-1.608 1.599,-1.488 1.213,-1.251 0.825,-1.014 0.42,-0.597 0,0"
             style="fill:#262424;fill-opacity:1;fill-rule:nonzero;stroke:none"
             id="path397336"
             inkscape:connector-curvature="0" />
        </g>
        <g
           id="g397338"
           transform="translate(409.296,346.37)">
          <path
             d="m 0,0 c 0,0.583 0.211,1.085 0.632,1.505 0.42,0.422 0.916,0.632 1.485,0.632 0.609,0 1.124,-0.207 1.547,-0.62 C 4.084,1.103 4.293,0.597 4.293,0 4.293,-0.597 4.084,-1.105 3.664,-1.525 3.241,-1.947 2.732,-2.157 2.135,-2.157 c -0.581,0 -1.083,0.21 -1.503,0.632 C 0.211,-1.105 0,-0.597 0,0 m 0.284,-7.387 h -0.792 l -0.193,0.068 -0.073,0.187 0.073,0.186 0.193,0.068 h 4.435 v -21.325 h 0.875 l 0.192,-0.068 0.073,-0.205 -0.073,-0.168 -0.192,-0.067 h -5.31 c -0.136,0.091 -0.202,0.176 -0.202,0.254 0,0.091 0.066,0.177 0.202,0.254 h 0.792 z"
             style="fill:#262424;fill-opacity:1;fill-rule:nonzero;stroke:none"
             id="path397340"
             inkscape:connector-curvature="0" />
        </g>
        <g
           id="g397342"
           transform="translate(446.469,336.115)">
          <path
             d="m 0,0 c 0,0.908 -0.187,1.635 -0.56,2.177 -0.252,0.38 -0.536,0.57 -0.855,0.57 -0.161,0 -0.304,-0.071 -0.43,-0.214 C -1.971,2.39 -2.034,2.204 -2.034,1.973 v -18.721 c 0,-0.42 0.059,-0.712 0.177,-0.875 0.12,-0.162 0.255,-0.243 0.417,-0.243 0.233,0 0.47,0.176 0.707,0.529 0.49,0.663 0.733,1.241 0.733,1.73 z m 3.642,-17.948 h 0.875 c 0.136,-0.092 0.205,-0.176 0.205,-0.254 0,-0.078 -0.069,-0.163 -0.205,-0.255 H 0 v 1.629 c -0.256,-0.624 -0.565,-1.093 -0.932,-1.404 -0.366,-0.313 -0.783,-0.47 -1.257,-0.47 -1.081,0 -1.933,0.807 -2.556,2.423 -0.622,1.614 -0.931,4.157 -0.931,7.631 0,5.453 0.473,9.027 1.418,10.723 0.581,1.03 1.339,1.547 2.271,1.547 0.366,0 0.714,-0.112 1.046,-0.337 C -0.61,3.063 -0.297,2.726 0,2.279 v 9.36 h -1.137 c -0.136,0.082 -0.206,0.169 -0.206,0.265 0,0.08 0.07,0.163 0.206,0.243 h 4.779 z"
             style="fill:#262424;fill-opacity:1;fill-rule:nonzero;stroke:none"
             id="path397344"
             inkscape:connector-curvature="0" />
        </g>
        <g
           id="g397346"
           transform="translate(483.013,329.054)">
          <path
             d="m 0,0 v 8.668 c 0,0.558 -0.107,0.978 -0.326,1.262 -0.145,0.203 -0.366,0.305 -0.663,0.305 -0.297,0 -0.555,-0.129 -0.777,-0.386 C -1.987,9.59 -2.098,9.197 -2.098,8.668 V 0 Z m -2.098,-0.549 v -7.57 c 0,-1.18 0.137,-1.961 0.408,-2.339 0.202,-0.287 0.534,-0.429 0.998,-0.429 0.758,0 1.438,0.429 2.035,1.283 0.988,1.437 1.519,3.397 1.585,5.88 0.013,0.815 0.051,1.275 0.114,1.384 0.06,0.109 0.145,0.162 0.252,0.162 0.095,0 0.171,-0.039 0.225,-0.121 0.066,-0.109 0.101,-0.367 0.101,-0.774 0,-2.414 -0.423,-4.447 -1.27,-6.094 -0.85,-1.648 -1.993,-2.473 -3.431,-2.473 -1.342,0 -2.454,0.635 -3.335,1.903 -0.884,1.268 -1.324,4.02 -1.324,8.251 v 2.991 c 0,3.243 0.597,5.705 1.791,7.387 0.853,1.194 1.886,1.791 3.093,1.791 1.437,0 2.546,-0.766 3.326,-2.299 C 3.25,6.85 3.642,4.985 3.642,2.788 v -3.337 z"
             style="fill:#262424;fill-opacity:1;fill-rule:nonzero;stroke:none"
             id="path397348"
             inkscape:connector-curvature="0" />
        </g>
        <g
           id="g397350"
           transform="translate(513.979,338.983)">
          <path
             d="m 0,0 h -0.875 l -0.124,0.04 c -0.041,0.052 -0.06,0.123 -0.06,0.214 0,0.079 0.06,0.163 0.184,0.255 h 4.457 v -1.668 c 0.474,0.719 0.941,1.218 1.402,1.495 0.462,0.279 1.017,0.417 1.668,0.417 0.869,0 1.488,-0.217 1.854,-0.652 0.528,-0.623 0.793,-1.52 0.793,-2.688 v -18.229 h 0.686 l 0.199,-0.068 0.072,-0.186 -0.072,-0.187 -0.193,-0.068 H 5.272 l -0.174,0.068 -0.073,0.187 0.07,0.186 0.167,0.068 H 5.657 V -1.75 c 0,0.42 -0.053,0.701 -0.161,0.845 C 5.389,-0.763 5.24,-0.691 5.051,-0.691 4.703,-0.691 4.4,-0.889 4.144,-1.282 3.768,-1.867 3.582,-2.824 3.582,-4.153 V -20.816 H 4.09 c 0.136,-0.092 0.202,-0.176 0.202,-0.254 0,-0.078 -0.066,-0.163 -0.202,-0.255 h -4.965 c -0.136,0.092 -0.202,0.177 -0.202,0.255 0,0.078 0.066,0.162 0.202,0.254 H 0 Z"
             style="fill:#262424;fill-opacity:1;fill-rule:nonzero;stroke:none"
             id="path397352"
             inkscape:connector-curvature="0" />
        </g>
        <g
           id="g397354"
           transform="translate(557.598,338.088)">
          <path
             d="m 0,0 c 0.407,0.326 0.768,0.682 1.08,1.069 0.313,0.388 0.521,0.58 0.632,0.58 L 1.813,1.608 1.854,1.404 v -8.709 c 0,-0.094 -0.028,-0.169 -0.082,-0.224 l -0.184,-0.08 c -0.094,0 -0.163,0.033 -0.202,0.101 C 1.358,-7.455 1.317,-7.123 1.264,-6.513 1.181,-5.5 0.916,-4.209 0.47,-2.646 0.022,-1.083 -0.423,-0.062 -0.863,0.419 -1.305,0.9 -1.775,1.14 -2.278,1.14 -2.603,1.14 -2.833,1.055 -2.969,0.886 -3.105,0.717 -3.171,0.354 -3.171,-0.202 v -17.929 c 0,-0.733 0.107,-1.237 0.325,-1.515 0.215,-0.278 0.514,-0.417 0.894,-0.417 0.49,0 0.957,0.201 1.406,0.6 0.445,0.4 0.799,0.987 1.058,1.759 0.54,1.576 0.811,3.385 0.811,5.433 v 1.141 c 0,0.19 0.035,0.332 0.102,0.426 l 0.163,0.124 0.162,-0.124 c 0.069,-0.094 0.104,-0.236 0.104,-0.426 v -1.343 c 0,-3.026 -0.502,-5.257 -1.507,-6.694 -0.704,-1.005 -1.601,-1.507 -2.684,-1.507 -1.195,0 -2.174,0.543 -2.932,1.628 -0.992,1.425 -1.485,3.908 -1.485,7.448 v 3.886 c 0,3.526 0.541,6.098 1.627,7.712 0.746,1.099 1.668,1.649 2.767,1.649 0.951,0 1.737,-0.55 2.36,-1.649"
             style="fill:#262424;fill-opacity:1;fill-rule:nonzero;stroke:none"
             id="path397356"
             inkscape:connector-curvature="0" />
        </g>
        <g
           id="g397358"
           transform="translate(586.368,346.37)">
          <path
             d="m 0,0 c 0,0.583 0.212,1.085 0.632,1.505 0.42,0.422 0.916,0.632 1.485,0.632 0.609,0 1.124,-0.207 1.548,-0.62 C 4.084,1.103 4.293,0.597 4.293,0 c 0,-0.597 -0.209,-1.105 -0.628,-1.525 -0.424,-0.422 -0.933,-0.632 -1.53,-0.632 -0.581,0 -1.083,0.21 -1.503,0.632 C 0.212,-1.105 0,-0.597 0,0 m 0.284,-7.387 h -0.793 l -0.192,0.068 -0.073,0.187 0.073,0.186 0.192,0.068 h 4.435 v -21.325 h 0.875 l 0.193,-0.068 0.073,-0.205 -0.073,-0.168 -0.193,-0.067 h -5.31 c -0.136,0.091 -0.202,0.176 -0.202,0.254 0,0.091 0.066,0.177 0.202,0.254 h 0.793 z"
             style="fill:#262424;fill-opacity:1;fill-rule:nonzero;stroke:none"
             id="path397360"
             inkscape:connector-curvature="0" />
        </g>
        <g
           id="g397362"
           transform="translate(623.197,330.742)">
          <path
             d="M 0,0 C -0.869,-0.339 -1.428,-0.678 -1.681,-1.017 -1.93,-1.356 -2.057,-1.898 -2.057,-2.646 v -8.605 c 0,-0.287 0.051,-0.497 0.152,-0.632 0.104,-0.136 0.227,-0.204 0.379,-0.204 0.215,0 0.462,0.231 0.733,0.691 C -0.266,-10.541 0,-9.51 0,-8.301 Z m -4.397,6.594 c 0.189,0.068 0.373,0.118 0.549,0.152 0.177,0.034 0.342,0.05 0.49,0.05 0.544,0 1.002,-0.196 1.374,-0.589 0.373,-0.394 0.559,-0.91 0.559,-1.546 0,-0.653 -0.189,-1.174 -0.572,-1.567 -0.378,-0.395 -0.887,-0.591 -1.525,-0.591 -0.638,0 -1.137,0.201 -1.504,0.601 -0.366,0.399 -0.549,0.993 -0.549,1.78 0,1.167 0.439,2.143 1.32,2.931 0.884,0.787 2.138,1.18 3.765,1.18 C 0.976,8.995 2.031,8.72 2.675,8.17 3.32,7.621 3.642,6.919 3.642,6.065 v -17.582 c 0,-0.204 0.054,-0.369 0.161,-0.499 0.111,-0.128 0.224,-0.192 0.347,-0.192 0.338,0 0.686,0.358 1.037,1.078 0.094,0.216 0.192,0.326 0.287,0.326 l 0.243,-0.225 c 0,-0.474 -0.306,-0.976 -0.916,-1.505 -0.61,-0.529 -1.343,-0.795 -2.198,-0.795 -0.733,0 -1.299,0.171 -1.7,0.509 -0.398,0.34 -0.701,0.937 -0.903,1.791 -0.625,-0.922 -1.172,-1.535 -1.64,-1.842 -0.467,-0.304 -1.02,-0.458 -1.658,-0.458 -0.774,0 -1.368,0.201 -1.778,0.6 -0.417,0.402 -0.623,0.928 -0.623,1.579 v 7.671 c 0,0.827 0.18,1.437 0.541,1.832 0.356,0.393 1.421,0.881 3.183,1.464 C -1.188,0.088 -0.531,0.36 0,0.632 v 5.859 c 0,0.612 -0.161,1.086 -0.48,1.425 -0.319,0.339 -0.736,0.509 -1.251,0.509 -1.194,0 -2.082,-0.61 -2.666,-1.831"
             style="fill:#262424;fill-opacity:1;fill-rule:nonzero;stroke:none"
             id="path397364"
             inkscape:connector-curvature="0" />
        </g>
        <g
           id="g397366"
           transform="translate(658.863,348.263)">
          <path
             d="m 0,0 v -30.096 h 0.792 l 0.174,-0.068 0.073,-0.186 -0.073,-0.186 -0.17,-0.068 h -5.295 l -0.17,0.068 -0.073,0.186 0.073,0.186 0.174,0.068 h 0.852 v 29.587 h -0.852 l -0.206,0.071 -0.082,0.174 0.082,0.183 L -4.499,0 Z"
             style="fill:#262424;fill-opacity:1;fill-rule:nonzero;stroke:none"
             id="path397368"
             inkscape:connector-curvature="0" />
        </g>
      </g>
    </g>
  </g>
</svg>
