<?xml version="1.0" encoding="UTF-8" standalone="no"?>
<!-- Created with Inkscape (http://www.inkscape.org/) -->

<svg
   xmlns:dc="http://purl.org/dc/elements/1.1/"
   xmlns:cc="http://creativecommons.org/ns#"
   xmlns:rdf="http://www.w3.org/1999/02/22-rdf-syntax-ns#"
   xmlns:svg="http://www.w3.org/2000/svg"
   xmlns="http://www.w3.org/2000/svg"
   xmlns:sodipodi="http://sodipodi.sourceforge.net/DTD/sodipodi-0.dtd"
   xmlns:inkscape="http://www.inkscape.org/namespaces/inkscape"
   width="161.19186mm"
   height="38.099998mm"
   viewBox="0 0 161.19186 38.099998"
   version="1.1"
   id="svg399524"
   inkscape:version="0.92.4 (5da689c313, 2019-01-14)"
   sodipodi:docname="easy.svg">
  <defs
     id="defs399518">
    <linearGradient
       id="linearGradient400114"
       spreadMethod="pad"
       gradientTransform="matrix(372.89758,-645.87756,-645.87756,-372.89758,167.88191,535.53723)"
       gradientUnits="userSpaceOnUse"
       y2="0"
       x2="1"
       y1="0"
       x1="0">
      <stop
         id="stop400110"
         offset="0"
         style="stop-opacity:1;stop-color:#dd264a" />
      <stop
         id="stop400112"
         offset="1"
         style="stop-opacity:1;stop-color:#f19824" />
    </linearGradient>
    <clipPath
       id="clipPath400128"
       clipPathUnits="userSpaceOnUse">
      <path
         inkscape:connector-curvature="0"
         id="path400126"
         d="M 129.791,0 H 708.662 V 406.814 H 129.791 Z" />
    </clipPath>
    <clipPath
       id="clipPath400136"
       clipPathUnits="userSpaceOnUse">
      <path
         inkscape:connector-curvature="0"
         id="path400134"
         d="M 478.556,154.634 H 744.864 V -75.1695 H 478.556 Z" />
    </clipPath>
    <clipPath
       id="clipPath400152"
       clipPathUnits="userSpaceOnUse">
      <path
         inkscape:connector-curvature="0"
         id="path400150"
         d="M 477.781,160.634 H 744.09 V -69.1696 H 477.781 Z" />
    </clipPath>
    <clipPath
       id="clipPath400176"
       clipPathUnits="userSpaceOnUse">
      <path
         inkscape:connector-curvature="0"
         id="path400174"
         d="M 475.851,172.161 H 743.173 V -58.6028 H 475.851 Z" />
    </clipPath>
    <linearGradient
       id="linearGradient400202"
       spreadMethod="pad"
       gradientTransform="matrix(20.783796,35.998592,35.998592,-20.783796,528.2168,56.114563)"
       gradientUnits="userSpaceOnUse"
       y2="0"
       x2="1"
       y1="0"
       x1="0">
      <stop
         id="stop400198"
         offset="0"
         style="stop-opacity:1;stop-color:#dd264a" />
      <stop
         id="stop400200"
         offset="1"
         style="stop-opacity:1;stop-color:#f19824" />
    </linearGradient>
    <linearGradient
       id="linearGradient400222"
       spreadMethod="pad"
       gradientTransform="matrix(21.825382,37.802669,37.802669,-21.825382,567.76202,53.602779)"
       gradientUnits="userSpaceOnUse"
       y2="0"
       x2="1"
       y1="0"
       x1="0">
      <stop
         id="stop400218"
         offset="0"
         style="stop-opacity:1;stop-color:#dd264a" />
      <stop
         id="stop400220"
         offset="1"
         style="stop-opacity:1;stop-color:#f19824" />
    </linearGradient>
    <linearGradient
       id="linearGradient400242"
       spreadMethod="pad"
       gradientTransform="matrix(21.267553,36.836483,36.836483,-21.267553,604.99231,55.869095)"
       gradientUnits="userSpaceOnUse"
       y2="0"
       x2="1"
       y1="0"
       x1="0">
      <stop
         id="stop400238"
         offset="0"
         style="stop-opacity:1;stop-color:#dd264a" />
      <stop
         id="stop400240"
         offset="1"
         style="stop-opacity:1;stop-color:#f19824" />
    </linearGradient>
    <linearGradient
       id="linearGradient400262"
       spreadMethod="pad"
       gradientTransform="matrix(33.044197,57.234226,57.234226,-33.044197,628.73199,43.307239)"
       gradientUnits="userSpaceOnUse"
       y2="0"
       x2="1"
       y1="0"
       x1="0">
      <stop
         id="stop400258"
         offset="0"
         style="stop-opacity:1;stop-color:#dd264a" />
      <stop
         id="stop400260"
         offset="1"
         style="stop-opacity:1;stop-color:#f19824" />
    </linearGradient>
    <clipPath
       id="clipPath400272"
       clipPathUnits="userSpaceOnUse">
      <path
         inkscape:connector-curvature="0"
         id="path400270"
         d="M 129.791,0 H 708.662 V 406.814 H 129.791 Z" />
    </clipPath>
  </defs>
  <sodipodi:namedview
     id="base"
     pagecolor="#ffffff"
     bordercolor="#666666"
     borderopacity="1.0"
     inkscape:pageopacity="0.0"
     inkscape:pageshadow="2"
     inkscape:zoom="0.7"
     inkscape:cx="101.42221"
     inkscape:cy="-178.80753"
     inkscape:document-units="mm"
     inkscape:current-layer="layer1"
     showgrid="false"
     fit-margin-top="0"
     fit-margin-left="30"
     fit-margin-right="30"
     fit-margin-bottom="0"
     inkscape:window-width="1920"
     inkscape:window-height="1016"
     inkscape:window-x="0"
     inkscape:window-y="27"
     inkscape:window-maximized="1" />
  <metadata
     id="metadata399521">
    <rdf:RDF>
      <cc:Work
         rdf:about="">
        <dc:format>image/svg+xml</dc:format>
        <dc:type
           rdf:resource="http://purl.org/dc/dcmitype/StillImage" />
        <dc:title></dc:title>
      </cc:Work>
    </rdf:RDF>
  </metadata>
  <g
     inkscape:label="Camada 1"
     inkscape:groupmode="layer"
     id="layer1"
     transform="translate(-43.55187,-23.377469)">
    <g
       id="g400118"
       transform="matrix(0.66132859,0,0,-0.66132859,154.58924,30.564144)">
      <path
         d="M 0,0 7.507,-1.975"
         style="fill:#ffffff;fill-opacity:1;fill-rule:nonzero;stroke:none"
         id="path400120"
         inkscape:connector-curvature="0" />
    </g>
    <g
       id="g400186"
       transform="matrix(0.66132859,0,0,-0.66132859,-269.61881,86.489379)">
      <g
         id="g400188">
        <g
           id="g400194">
          <g
             id="g400196">
            <path
               d="m 529.971,93.877 c -2.333,-1.035 -4.317,-2.476 -5.95,-4.322 v 0 c -1.636,-1.846 -2.896,-4.049 -3.781,-6.607 v 0 c -0.886,-2.558 -1.329,-5.372 -1.329,-8.439 v 0 -1.46 c 0,-2.72 0.456,-5.273 1.366,-7.654 v 0 c 0.91,-2.384 2.232,-4.461 3.967,-6.233 v 0 c 1.735,-1.772 3.843,-3.169 6.326,-4.192 v 0 c 2.482,-1.021 5.295,-1.535 8.44,-1.535 v 0 c 1.971,0 3.787,0.207 5.446,0.618 v 0 c 1.66,0.412 3.15,0.96 4.474,1.648 v 0 c 1.322,0.685 2.469,1.464 3.442,2.338 v 0 c 0.974,0.874 1.785,1.772 2.433,2.695 v 0 l -5.315,5.952 c -1.198,-1.549 -2.632,-2.689 -4.303,-3.425 v 0 c -1.673,-0.737 -3.495,-1.104 -5.465,-1.104 v 0 c -1.398,0 -2.659,0.212 -3.781,0.636 v 0 c -1.122,0.425 -2.102,1.017 -2.938,1.777 v 0 c -0.837,0.762 -1.521,1.679 -2.058,2.753 v 0 c -0.537,1.071 -0.894,2.269 -1.066,3.592 v 0 h 25.787 v 4.605 c 0,2.993 -0.38,5.713 -1.142,8.158 v 0 c -0.761,2.446 -1.896,4.535 -3.405,6.269 v 0 c -1.51,1.735 -3.374,3.082 -5.596,4.043 v 0 c -2.222,0.961 -4.79,1.442 -7.711,1.442 v 0 c -2.894,0 -5.507,-0.519 -7.841,-1.555 m 0.881,-12.182 c 0.397,1.022 0.916,1.901 1.552,2.638 v 0 c 0.637,0.737 1.398,1.311 2.283,1.722 v 0 c 0.885,0.412 1.915,0.618 3.088,0.618 v 0 c 1.248,0 2.327,-0.187 3.238,-0.562 v 0 c 0.91,-0.373 1.659,-0.897 2.246,-1.571 v 0 c 0.586,-0.673 1.021,-1.473 1.309,-2.395 v 0 c 0.287,-0.924 0.444,-1.923 0.469,-2.996 v 0 -0.861 H 529.99 c 0.175,1.249 0.461,2.384 0.862,3.407"
               style="fill:url(#linearGradient400202);stroke:none"
               id="path400204"
               inkscape:connector-curvature="0" />
          </g>
        </g>
      </g>
    </g>
    <g
       id="g400206"
       transform="matrix(0.66132859,0,0,-0.66132859,-269.61881,86.489379)">
      <g
         id="g400208">
        <g
           id="g400214">
          <g
             id="g400216">
            <path
               d="m 569.665,94.402 c -2.121,-0.687 -3.93,-1.616 -5.427,-2.788 v 0 c -1.497,-1.173 -2.652,-2.546 -3.462,-4.118 v 0 c -0.81,-1.573 -1.216,-3.232 -1.216,-4.979 v 0 h 10.817 c 0,1.522 0.516,2.72 1.554,3.594 v 0 c 1.034,0.873 2.462,1.311 4.285,1.311 v 0 c 2.071,0 3.586,-0.562 4.548,-1.684 v 0 c 0.96,-1.125 1.441,-2.62 1.441,-4.492 v 0 -2.32 h -4.829 c -3.095,0 -5.808,-0.301 -8.141,-0.899 v 0 c -2.333,-0.6 -4.286,-1.473 -5.858,-2.62 v 0 c -1.571,-1.148 -2.751,-2.546 -3.537,-4.192 v 0 c -0.786,-1.647 -1.179,-3.531 -1.179,-5.653 v 0 c 0,-1.772 0.35,-3.4 1.048,-4.884 v 0 c 0.698,-1.485 1.667,-2.763 2.901,-3.837 v 0 c 1.235,-1.072 2.694,-1.908 4.38,-2.507 v 0 c 1.684,-0.598 3.499,-0.899 5.445,-0.899 v 0 c 2.396,0 4.423,0.426 6.082,1.273 v 0 c 1.66,0.849 3.038,1.885 4.137,3.107 v 0 c 0.225,-1.447 0.585,-2.658 1.085,-3.631 v 0 h 10.929 v 0.637 c -0.275,0.524 -0.511,1.079 -0.71,1.666 v 0 c -0.202,0.585 -0.362,1.246 -0.488,1.982 v 0 c -0.125,0.737 -0.224,1.56 -0.299,2.472 v 0 c -0.075,0.91 -0.111,1.939 -0.111,3.087 v 0 17.142 c 0,2.371 -0.407,4.449 -1.219,6.233 v 0 c -0.81,1.783 -1.94,3.268 -3.386,4.454 v 0 c -1.448,1.185 -3.17,2.077 -5.166,2.676 v 0 c -1.995,0.599 -4.168,0.899 -6.511,0.899 v 0 c -2.621,0 -4.992,-0.344 -7.113,-1.03 m 1.236,-31.384 c -0.949,0.873 -1.423,1.983 -1.423,3.33 v 0 c 0,0.899 0.162,1.729 0.487,2.489 v 0 c 0.324,0.762 0.824,1.423 1.497,1.985 v 0 c 0.674,0.561 1.535,0.998 2.583,1.309 v 0 c 1.047,0.313 2.283,0.468 3.705,0.468 v 0 h 4.455 v -6.961 c -0.276,-0.501 -0.643,-0.986 -1.105,-1.46 v 0 c -0.461,-0.474 -1.004,-0.893 -1.628,-1.254 v 0 c -0.624,-0.362 -1.329,-0.656 -2.114,-0.879 v 0 c -0.787,-0.225 -1.642,-0.337 -2.565,-0.337 v 0 c -1.647,0 -2.945,0.436 -3.892,1.31"
               style="fill:url(#linearGradient400222);stroke:none"
               id="path400224"
               inkscape:connector-curvature="0" />
          </g>
        </g>
      </g>
    </g>
    <g
       id="g400226"
       transform="matrix(0.66132859,0,0,-0.66132859,-269.61881,86.489379)">
      <g
         id="g400228">
        <g
           id="g400234">
          <g
             id="g400236">
            <path
               d="m 608.426,94.42 c -2.01,-0.674 -3.707,-1.59 -5.09,-2.751 v 0 c -1.385,-1.16 -2.446,-2.502 -3.183,-4.023 v 0 c -0.736,-1.522 -1.104,-3.132 -1.104,-4.828 v 0 c 0,-1.747 0.362,-3.281 1.086,-4.603 v 0 c 0.723,-1.324 1.727,-2.485 3.013,-3.483 v 0 c 1.285,-0.997 2.807,-1.833 4.567,-2.507 v 0 c 1.758,-0.673 3.673,-1.235 5.744,-1.684 v 0 c 1.696,-0.349 3.081,-0.711 4.155,-1.086 v 0 c 1.072,-0.375 1.922,-0.767 2.545,-1.178 v 0 c 0.624,-0.412 1.049,-0.855 1.274,-1.33 v 0 c 0.223,-0.473 0.336,-0.997 0.336,-1.571 v 0 c 0,-1.273 -0.531,-2.303 -1.592,-3.088 v 0 c -1.061,-0.787 -2.626,-1.18 -4.696,-1.18 v 0 c -0.974,0 -1.903,0.114 -2.79,0.338 v 0 c -0.884,0.225 -1.664,0.574 -2.337,1.047 v 0 c -0.674,0.475 -1.218,1.092 -1.629,1.853 v 0 c -0.412,0.761 -0.643,1.665 -0.693,2.714 v 0 h -10.255 c 0,-1.647 0.374,-3.282 1.123,-4.903 v 0 c 0.749,-1.623 1.864,-3.082 3.35,-4.379 v 0 c 1.483,-1.298 3.312,-2.345 5.483,-3.145 v 0 c 2.17,-0.798 4.679,-1.198 7.523,-1.198 v 0 c 2.596,0 4.941,0.314 7.037,0.937 v 0 c 2.095,0.623 3.886,1.484 5.37,2.583 v 0 c 1.485,1.097 2.627,2.401 3.426,3.91 v 0 c 0.797,1.509 1.198,3.163 1.198,4.96 v 0 c 0,1.996 -0.388,3.698 -1.16,5.109 v 0 c -0.774,1.409 -1.841,2.607 -3.202,3.593 v 0 c -1.359,0.986 -2.975,1.79 -4.846,2.414 v 0 c -1.871,0.624 -3.905,1.148 -6.101,1.572 v 0 c -1.398,0.274 -2.577,0.574 -3.537,0.899 v 0 c -0.96,0.324 -1.735,0.679 -2.32,1.067 v 0 c -0.587,0.386 -1.011,0.81 -1.274,1.271 v 0 c -0.261,0.463 -0.392,0.992 -0.392,1.593 v 0 c 0,1.27 0.498,2.319 1.496,3.143 v 0 c 0.999,0.823 2.409,1.235 4.23,1.235 v 0 c 2.121,0 3.681,-0.506 4.68,-1.516 v 0 c 0.997,-1.011 1.496,-2.29 1.496,-3.837 v 0 h 10.816 c 0,1.896 -0.392,3.644 -1.178,5.241 v 0 c -0.785,1.596 -1.909,2.975 -3.368,4.136 v 0 c -1.46,1.16 -3.239,2.064 -5.334,2.713 v 0 c -2.096,0.648 -4.454,0.974 -7.075,0.974 v 0 c -2.52,0 -4.785,-0.338 -6.792,-1.012"
               style="fill:url(#linearGradient400242);stroke:none"
               id="path400244"
               inkscape:connector-curvature="0" />
          </g>
        </g>
      </g>
    </g>
    <g
       id="g400246"
       transform="matrix(0.66132859,0,0,-0.66132859,-269.61881,86.489379)">
      <g
         id="g400248">
        <g
           id="g400254">
          <g
             id="g400256">
            <path
               d="m 660.322,94.683 -7.485,-25.19 -7.524,25.19 h -11.641 l 14.186,-40.61 -1.16,-3.033 c -0.276,-0.748 -0.6,-1.396 -0.974,-1.946 v 0 c -0.374,-0.549 -0.836,-1.004 -1.384,-1.367 v 0 c -0.549,-0.36 -1.205,-0.623 -1.965,-0.785 v 0 c -0.761,-0.162 -1.679,-0.243 -2.752,-0.243 v 0 c -0.249,0 -0.517,0.007 -0.804,0.018 v 0 c -0.288,0.014 -0.569,0.019 -0.842,0.019 v 0 -8.766 c 0.523,0 2.002,-0.053 4.79,-0.142 v 0 c 2.145,-0.068 3.955,0.344 5.427,1.03 v 0 c 1.473,0.686 2.708,1.547 3.706,2.582 v 0 c 0.998,1.035 1.791,2.152 2.377,3.349 v 0 c 0.585,1.198 1.067,2.309 1.441,3.333 v 0 l 16.206,46.561 z"
               style="fill:url(#linearGradient400262);stroke:none"
               id="path400264"
               inkscape:connector-curvature="0" />
          </g>
        </g>
      </g>
    </g>
  </g>
</svg>
