<?xml version="1.0" encoding="UTF-8" standalone="no"?>
<!-- Created with Inkscape (http://www.inkscape.org/) -->

<svg
   xmlns:dc="http://purl.org/dc/elements/1.1/"
   xmlns:cc="http://creativecommons.org/ns#"
   xmlns:rdf="http://www.w3.org/1999/02/22-rdf-syntax-ns#"
   xmlns:svg="http://www.w3.org/2000/svg"
   xmlns="http://www.w3.org/2000/svg"
   xmlns:sodipodi="http://sodipodi.sourceforge.net/DTD/sodipodi-0.dtd"
   xmlns:inkscape="http://www.inkscape.org/namespaces/inkscape"
   width="262.64368mm"
   height="38.099998mm"
   viewBox="0 0 262.64368 38.099998"
   version="1.1"
   id="svg400777"
   inkscape:version="0.92.4 (5da689c313, 2019-01-14)"
   sodipodi:docname="greenpark.svg">
  <defs
     id="defs400771">
    <clipPath
       id="clipPath401357"
       clipPathUnits="userSpaceOnUse">
      <path
         inkscape:connector-curvature="0"
         id="path401355"
         d="M 0,799.92 H 1600.08 V 0 H 0 Z" />
    </clipPath>
    <clipPath
       id="clipPath401371"
       clipPathUnits="userSpaceOnUse">
      <path
         inkscape:connector-curvature="0"
         id="path401369"
         d="M 0,799.92 H 1600.08 V 0 H 0 Z" />
    </clipPath>
    <clipPath
       id="clipPath401379"
       clipPathUnits="userSpaceOnUse">
      <path
         inkscape:connector-curvature="0"
         id="path401377"
         d="M -8.50394,808.424 H 1608.58 V -8.50394 H -8.50394 Z" />
    </clipPath>
    <clipPath
       id="clipPath401397"
       clipPathUnits="userSpaceOnUse">
      <path
         inkscape:connector-curvature="0"
         id="path401395"
         d="M 0,799.92 H 1600.08 V 0 H 0 Z" />
    </clipPath>
  </defs>
  <sodipodi:namedview
     id="base"
     pagecolor="#ffffff"
     bordercolor="#666666"
     borderopacity="1.0"
     inkscape:pageopacity="0.0"
     inkscape:pageshadow="2"
     inkscape:zoom="0.35"
     inkscape:cx="610.62019"
     inkscape:cy="-253.67857"
     inkscape:document-units="mm"
     inkscape:current-layer="layer1"
     showgrid="false"
     fit-margin-top="0"
     fit-margin-left="30"
     fit-margin-right="30"
     fit-margin-bottom="0"
     inkscape:window-width="1920"
     inkscape:window-height="1016"
     inkscape:window-x="0"
     inkscape:window-y="27"
     inkscape:window-maximized="1" />
  <metadata
     id="metadata400774">
    <rdf:RDF>
      <cc:Work
         rdf:about="">
        <dc:format>image/svg+xml</dc:format>
        <dc:type
           rdf:resource="http://purl.org/dc/dcmitype/StillImage" />
        <dc:title></dc:title>
      </cc:Work>
    </rdf:RDF>
  </metadata>
  <g
     inkscape:label="Camada 1"
     inkscape:groupmode="layer"
     id="layer1"
     transform="translate(55.726592,-43.614212)">
    <g
       id="g401407"
       transform="matrix(0.35277777,0,0,-0.32668809,-1.9694787,69.997542)">
      <path
         d="m 0,0 c -3.097,-4.476 -6.797,-7.741 -11.095,-9.805 -4.475,-1.891 -9.378,-2.838 -14.707,-2.838 -12.731,0 -22.795,4.213 -30.188,12.643 -7.572,8.257 -11.353,19.61 -11.353,34.059 0,14.275 3.697,25.544 11.095,33.8 7.74,8.599 17.972,12.901 30.704,12.901 11.006,0 20.125,-2.669 27.35,-7.998 C 8.857,67.084 13.07,59.687 14.449,50.571 H 2.064 c -3.613,0 -6.281,1.633 -7.999,4.903 -1.206,2.065 -2.926,3.955 -5.16,5.676 -3.443,2.407 -7.999,3.613 -13.675,3.613 -7.398,0 -13.248,-2.669 -17.545,-7.999 -4.302,-5.676 -6.451,-13.248 -6.451,-22.705 0,-9.636 2.234,-17.203 6.708,-22.706 4.298,-5.334 10.406,-7.999 18.32,-7.999 5.846,0 10.664,1.633 14.449,4.903 3.781,3.438 6.192,8.167 7.225,14.191 h -10.837 c -2.58,0 -4.774,0.903 -6.579,2.709 -1.806,1.805 -2.709,3.999 -2.709,6.579 v 5.935 h 36.896 v -48.25 H 9.805 c -4.818,0 -7.829,2.407 -9.032,7.225 z"
         style="fill:#bcba00;fill-opacity:1;fill-rule:nonzero;stroke:none"
         id="path401409"
         inkscape:connector-curvature="0" />
    </g>
    <g
       id="g401411"
       transform="matrix(0.35277777,0,0,-0.32668809,4.5840723,73.45357)">
      <path
         d="m 0,0 v 33.285 c 0,6.708 0.988,12.34 2.968,16.9 1.974,4.556 4.684,8.212 8.127,10.965 3.265,2.581 7.095,4.472 11.482,5.677 4.387,1.202 8.902,1.806 13.546,1.806 h 1.29 1.29 V 50.314 h -5.934 c -4.992,0 -8.688,-1.205 -11.095,-3.613 -2.411,-2.41 -3.612,-6.191 -3.612,-11.352 L 18.062,0 Z"
         style="fill:#bcba00;fill-opacity:1;fill-rule:nonzero;stroke:none"
         id="path401413"
         inkscape:connector-curvature="0" />
    </g>
    <g
       id="g401415"
       transform="matrix(0.35277777,0,0,-0.32668809,24.791185,59.966584)">
      <path
         d="m 0,0 h 26.318 c -0.346,4.644 -1.547,8.083 -3.612,10.321 -2.237,2.406 -5.419,3.612 -9.548,3.612 -3.785,0 -6.88,-1.206 -9.288,-3.612 C 1.46,7.909 0.169,4.471 0,0 m 30.963,-20.126 h 12.899 c -1.893,-7.225 -5.506,-12.731 -10.835,-16.514 -5.335,-3.958 -12.044,-5.934 -20.126,-5.934 -9.805,0 -17.461,3.181 -22.964,9.547 -5.507,6.193 -8.256,15.05 -8.256,26.576 0,11.007 2.665,19.61 7.999,25.802 5.503,6.362 13.158,9.547 22.964,9.547 10.32,0 18.319,-3.096 23.995,-9.289 5.503,-6.366 8.257,-15.223 8.257,-26.576 v -1.806 -1.032 c 0,-0.863 -0.088,-1.464 -0.258,-1.806 H 0 c 0.169,-5.334 1.46,-9.289 3.87,-11.869 2.234,-2.754 5.588,-4.128 10.063,-4.128 2.922,0 5.418,0.601 7.482,1.806 0.517,0.169 0.988,0.471 1.419,0.903 0.429,0.427 0.903,0.903 1.42,1.419 0.17,0.516 0.814,1.202 1.935,2.064 1.117,0.858 2.709,1.29 4.774,1.29"
         style="fill:#bcba00;fill-opacity:1;fill-rule:nonzero;stroke:none"
         id="path401417"
         inkscape:connector-curvature="0" />
    </g>
    <g
       id="g401419"
       transform="matrix(0.35277777,0,0,-0.32668809,47.547468,59.966584)">
      <path
         d="m 0,0 h 26.317 c -0.345,4.644 -1.547,8.083 -3.611,10.321 -2.237,2.406 -5.42,3.612 -9.548,3.612 -3.785,0 -6.881,-1.206 -9.288,-3.612 C 1.46,7.909 0.169,4.471 0,0 m 30.963,-20.126 h 12.899 c -1.893,-7.225 -5.506,-12.731 -10.836,-16.514 -5.334,-3.958 -12.043,-5.934 -20.125,-5.934 -9.805,0 -17.461,3.181 -22.964,9.547 -5.507,6.193 -8.256,15.05 -8.256,26.576 0,11.007 2.664,19.61 7.998,25.802 5.503,6.362 13.158,9.547 22.965,9.547 10.32,0 18.319,-3.096 23.995,-9.289 5.503,-6.366 8.257,-15.223 8.257,-26.576 v -1.806 -1.032 c 0,-0.863 -0.089,-1.464 -0.259,-1.806 H 0 c 0.169,-5.334 1.46,-9.289 3.87,-11.869 2.233,-2.754 5.588,-4.128 10.063,-4.128 2.922,0 5.418,0.601 7.482,1.806 0.517,0.169 0.987,0.471 1.419,0.903 0.429,0.427 0.903,0.903 1.42,1.419 0.17,0.516 0.814,1.202 1.935,2.064 1.117,0.858 2.709,1.29 4.774,1.29"
         style="fill:#bcba00;fill-opacity:1;fill-rule:nonzero;stroke:none"
         id="path401421"
         inkscape:connector-curvature="0" />
    </g>
    <g
       id="g401423"
       transform="matrix(0.35277777,0,0,-0.32668809,85.504238,73.45357)">
      <path
         d="m 0,0 h -9.031 c -2.581,0 -4.689,0.814 -6.322,2.452 -1.637,1.632 -2.451,3.741 -2.451,6.32 v 35.091 c 0,4.129 -1.25,7.136 -3.741,9.031 -2.496,1.891 -5.29,2.838 -8.387,2.838 -3.095,0 -5.849,-0.947 -8.256,-2.838 -2.411,-1.895 -3.612,-4.902 -3.612,-9.031 V 0 h -18.061 v 40.251 c 0,11.696 3.052,19.521 9.16,23.48 6.103,3.955 12.856,6.103 20.255,6.451 7.566,0 14.532,-1.98 20.898,-5.935 C -3.185,60.288 0,52.289 0,40.251 Z"
         style="fill:#bcba00;fill-opacity:1;fill-rule:nonzero;stroke:none"
         id="path401425"
         inkscape:connector-curvature="0" />
    </g>
    <g
       id="g401427"
       transform="matrix(0.35277777,0,0,-0.32668809,103.07222,62.326907)">
      <path
         d="m 0,0 c 0,6.708 -1.29,11.868 -3.87,15.481 -2.581,3.612 -6.281,5.418 -11.096,5.418 -4.643,0 -8.257,-1.806 -10.836,-5.418 -2.412,-3.27 -3.613,-8.43 -3.613,-15.481 0,-6.54 1.291,-11.442 3.872,-14.708 2.578,-3.611 6.275,-5.418 11.094,-5.418 4.471,0 7.998,1.807 10.579,5.418 C -1.29,-11.095 0,-6.193 0,0 m -29.415,-50.572 c 0,-2.407 -0.863,-4.471 -2.579,-6.193 -1.723,-1.717 -3.786,-2.58 -6.193,-2.58 H -46.96 V 4.902 c 0,12.038 3.524,20.254 10.579,24.641 7.051,4.386 14.708,6.58 22.964,6.58 4.297,0 8.644,-0.819 13.03,-2.452 4.387,-1.636 7.868,-3.999 10.45,-7.095 5.161,-6.709 7.74,-15.312 7.74,-25.802 0,-10.837 -2.579,-19.61 -7.74,-26.318 -5.161,-6.539 -11.785,-9.805 -19.868,-9.805 -4.301,0 -8.088,0.774 -11.353,2.322 -3.443,1.718 -6.193,4.387 -8.257,7.999 z"
         style="fill:#ffffff;fill-opacity:1;fill-rule:nonzero;stroke:none"
         id="path401429"
         inkscape:connector-curvature="0" />
    </g>
    <g
       id="g401431"
       transform="matrix(0.35277777,0,0,-0.32668809,124.4629,62.158329)">
      <path
         d="m 0,0 c -2.412,-1.206 -5.766,-2.322 -10.063,-3.354 l -5.935,-1.29 c -3.096,-0.863 -5.333,-1.98 -6.707,-3.355 -1.206,-1.895 -1.807,-3.786 -1.807,-5.676 0,-2.58 0.774,-4.644 2.322,-6.192 1.548,-1.38 3.782,-2.064 6.709,-2.064 4.813,0 8.599,1.374 11.353,4.128 C -1.379,-15.054 0,-11.268 0,-6.45 Z m 4.129,-31.736 c -3.613,-1.895 -7.443,-3.052 -11.483,-3.483 -4.044,-0.428 -7.611,-0.646 -10.708,-0.646 -6.193,0 -11.611,1.678 -16.255,5.032 -4.644,3.354 -6.966,8.902 -6.966,16.642 0,7.225 2.104,12.385 6.321,15.481 4.213,3.096 9.588,5.161 16.127,6.192 0.857,0 1.891,0.13 3.095,0.388 1.202,0.257 2.581,0.471 4.129,0.645 7.566,1.032 11.353,3.265 11.353,6.708 0,2.581 -1.334,4.257 -4,5.032 -2.669,0.774 -5.119,1.161 -7.353,1.161 -2.411,0 -4.56,-0.347 -6.451,-1.033 -1.894,-0.689 -3.269,-1.979 -4.128,-3.87 h -17.287 c 0.685,5.33 3.095,9.716 7.224,13.159 4.645,3.955 11.264,5.935 19.868,5.935 9.632,0 16.856,-1.637 21.673,-4.903 4.986,-3.442 7.483,-8.257 7.483,-14.449 v -23.48 c 0,-6.881 -1.25,-12.255 -3.741,-16.126 -2.496,-3.87 -5.463,-6.668 -8.901,-8.385"
         style="fill:#ffffff;fill-opacity:1;fill-rule:nonzero;stroke:none"
         id="path401433"
         inkscape:connector-curvature="0" />
    </g>
    <g
       id="g401435"
       transform="matrix(0.35277777,0,0,-0.32668809,131.28915,73.45357)">
      <path
         d="m 0,0 v 33.285 c 0,6.708 0.988,12.34 2.968,16.9 1.975,4.556 4.684,8.212 8.128,10.965 3.265,2.581 7.095,4.472 11.482,5.677 4.385,1.202 8.901,1.806 13.544,1.806 h 1.291 1.29 V 50.314 h -5.934 c -4.992,0 -8.688,-1.205 -11.096,-3.613 -2.41,-2.41 -3.611,-6.191 -3.611,-11.352 L 18.062,0 Z"
         style="fill:#ffffff;fill-opacity:1;fill-rule:nonzero;stroke:none"
         id="path401437"
         inkscape:connector-curvature="0" />
    </g>
    <g
       id="g401439"
       transform="matrix(0.35277777,0,0,-0.32668809,151.95099,51.031991)">
      <path
         d="M 0,0 V -25.286 L 21.933,0 H 43.606 L 19.094,-26.318 43.863,-68.633 H 22.19 L 9.548,-45.412 c -2.581,4.645 -4.819,6.62 -6.709,5.935 C 0.943,-40.166 0,-41.198 0,-42.573 v -9.547 -16.513 h -18.062 v 88.759 h 9.289 c 2.407,0 4.471,-0.863 6.192,-2.581 C -0.863,15.824 0,13.845 0,11.611 Z"
         style="fill:#ffffff;fill-opacity:1;fill-rule:nonzero;stroke:none"
         id="path401441"
         inkscape:connector-curvature="0" />
    </g>
    <g
       id="g401443"
       transform="matrix(0.35277777,0,0,-0.32668809,176.91707,70.495087)">
      <path
         d="m 0,0 c 0,-5.001 -4.055,-9.056 -9.056,-9.056 -5.002,0 -9.056,4.055 -9.056,9.056 0,5.001 4.054,9.056 9.056,9.056 C -4.055,9.056 0,5.001 0,0"
         style="fill:#bcba00;fill-opacity:1;fill-rule:nonzero;stroke:none"
         id="path401445"
         inkscape:connector-curvature="0" />
    </g>
  </g>
</svg>
