<?xml version="1.0" encoding="UTF-8" standalone="no"?>
<!-- Created with Inkscape (http://www.inkscape.org/) -->

<svg
   xmlns:dc="http://purl.org/dc/elements/1.1/"
   xmlns:cc="http://creativecommons.org/ns#"
   xmlns:rdf="http://www.w3.org/1999/02/22-rdf-syntax-ns#"
   xmlns:svg="http://www.w3.org/2000/svg"
   xmlns="http://www.w3.org/2000/svg"
   xmlns:sodipodi="http://sodipodi.sourceforge.net/DTD/sodipodi-0.dtd"
   xmlns:inkscape="http://www.inkscape.org/namespaces/inkscape"
   width="168.21306mm"
   height="38.099998mm"
   viewBox="0 0 168.21306 38.099998"
   version="1.1"
   id="svg406573"
   inkscape:version="0.92.4 (5da689c313, 2019-01-14)"
   sodipodi:docname="lumiere.svg">
  <defs
     id="defs406567">
    <clipPath
       id="clipPath407875"
       clipPathUnits="userSpaceOnUse">
      <path
         inkscape:connector-curvature="0"
         id="path407873"
         d="M 0,799.92 H 1600.08 V 0 H 0 Z" />
    </clipPath>
    <clipPath
       id="clipPath407903"
       clipPathUnits="userSpaceOnUse">
      <path
         inkscape:connector-curvature="0"
         id="path407901"
         d="M 0,799.92 H 1600.08 V 0 H 0 Z" />
    </clipPath>
    <clipPath
       id="clipPath407921"
       clipPathUnits="userSpaceOnUse">
      <path
         inkscape:connector-curvature="0"
         id="path407919"
         d="M 0,799.92 H 1600.08 V 0 H 0 Z" />
    </clipPath>
    <clipPath
       id="clipPath407945"
       clipPathUnits="userSpaceOnUse">
      <path
         inkscape:connector-curvature="0"
         id="path407943"
         d="M 0,799.92 H 1600.08 V 0 H 0 Z" />
    </clipPath>
    <clipPath
       id="clipPath407965"
       clipPathUnits="userSpaceOnUse">
      <path
         inkscape:connector-curvature="0"
         id="path407963"
         d="M 0,799.92 H 1600.08 V 0 H 0 Z" />
    </clipPath>
  </defs>
  <sodipodi:namedview
     id="base"
     pagecolor="#ffffff"
     bordercolor="#666666"
     borderopacity="1.0"
     inkscape:pageopacity="0.0"
     inkscape:pageshadow="2"
     inkscape:zoom="0.49497475"
     inkscape:cx="1015.5001"
     inkscape:cy="-148.71234"
     inkscape:document-units="mm"
     inkscape:current-layer="layer1"
     showgrid="false"
     fit-margin-top="0"
     fit-margin-left="30"
     fit-margin-right="30"
     fit-margin-bottom="0"
     inkscape:window-width="1920"
     inkscape:window-height="1016"
     inkscape:window-x="0"
     inkscape:window-y="27"
     inkscape:window-maximized="1" />
  <metadata
     id="metadata406570">
    <rdf:RDF>
      <cc:Work
         rdf:about="">
        <dc:format>image/svg+xml</dc:format>
        <dc:type
           rdf:resource="http://purl.org/dc/dcmitype/StillImage" />
        <dc:title></dc:title>
      </cc:Work>
    </rdf:RDF>
  </metadata>
  <g
     inkscape:label="Camada 1"
     inkscape:groupmode="layer"
     id="layer1"
     transform="translate(-60.738357,-86.974575)">
    <g
       id="g408956"
       transform="matrix(0,-1.1735846,1.1735846,0,17.109293,266.62024)">
      <g
         transform="matrix(0.35277777,0,0,-0.35277777,124.78269,66.759569)"
         id="g407991">
        <path
           inkscape:connector-curvature="0"
           id="path407993"
           style="fill:#ffffff;fill-opacity:1;fill-rule:evenodd;stroke:none"
           d="M 0,0 H 64.52 V 11.398 H -10.753 V -19.034 H 0 Z m 64.52,-56.718 v 11.399 H 6.453 c -5.485,0 -7.528,2.473 -7.528,6.452 0,3.979 2.043,6.451 7.528,6.451 H 64.52 v 10.969 H 6.13 c -11.829,0 -17.959,-6.775 -17.959,-17.528 0,-10.968 6.13,-17.743 17.959,-17.743 z M -10.753,-112.36 H 64.52 v 15.378 l -40.432,8.817 v 0.215 l 40.432,8.926 v 14.947 h -75.273 v -10.754 h 52.261 v -0.214 L 0,-84.508 v -6.775 l 41.508,-9.463 v -0.215 h -52.261 z m 0,-19.403 H 64.52 v 11.398 h -75.273 z m 64.735,-40.05 H 64.52 v 32.045 h -75.273 v -32.045 h 10.538 v 20.646 h 22.367 v -16.667 H 32.69 v 16.667 h 21.292 z m -64.735,-30.049 v -12.043 l 34.303,10.43 c 3.011,-5.269 8.603,-8.065 16.56,-8.065 h 5.376 c 12.367,0 19.034,6.667 19.034,18.926 v 16.452 h -75.273 v -11.398 h 31.83 v -5.269 z m 64.735,14.302 v -4.624 c 0,-5.484 -2.903,-7.957 -9.248,-7.957 h -3.871 c -6.344,0 -9.248,2.473 -9.248,7.957 v 4.624 z m 0,-62.417 H 64.52 v 32.045 h -75.273 v -32.045 h 10.538 v 20.647 h 22.367 v -16.668 H 32.69 v 16.668 h 21.292 z" />
      </g>
      <path
         inkscape:connector-curvature="0"
         id="path407995"
         style="fill:#ffffff;fill-opacity:1;fill-rule:evenodd;stroke:none;stroke-width:0.35277778"
         d="m 153.07432,118.94705 h -2.67724 v -2.91359 h 2.67724 z" />
      <path
         inkscape:connector-curvature="0"
         id="path407997"
         style="fill:#ffffff;fill-opacity:1;fill-rule:evenodd;stroke:none;stroke-width:0.35277778"
         d="m 153.07432,123.13099 h -2.67724 v -2.91359 h 2.67724 z" />
      <path
         inkscape:connector-curvature="0"
         id="path407999"
         style="fill:#ffffff;fill-opacity:1;fill-rule:evenodd;stroke:none;stroke-width:0.35277778"
         d="m 153.07432,127.32658 h -2.67724 v -2.91395 h 2.67724 z" />
    </g>
  </g>
</svg>
