<?xml version="1.0" encoding="UTF-8" standalone="no"?>
<!-- Created with Inkscape (http://www.inkscape.org/) -->

<svg
   xmlns:dc="http://purl.org/dc/elements/1.1/"
   xmlns:cc="http://creativecommons.org/ns#"
   xmlns:rdf="http://www.w3.org/1999/02/22-rdf-syntax-ns#"
   xmlns:svg="http://www.w3.org/2000/svg"
   xmlns="http://www.w3.org/2000/svg"
   xmlns:sodipodi="http://sodipodi.sourceforge.net/DTD/sodipodi-0.dtd"
   xmlns:inkscape="http://www.inkscape.org/namespaces/inkscape"
   width="810"
   height="350"
   viewBox="0 0 214.31249 92.604154"
   version="1.1"
   id="svg13436"
   inkscape:version="0.92.5 (2060ec1f9f, 2020-04-08)"
   sodipodi:docname="reserva111.svg">
  <defs
     id="defs13430">
    <clipPath
       id="clipPath6366"
       clipPathUnits="userSpaceOnUse">
      <path
         inkscape:connector-curvature="0"
         id="path6364"
         d="m 119.197,8535.63 -10.298,-5.943 -2.368,-1.371 -10.485,-6.045 -0.474,-0.277 -18.709,-10.809 c -0.469,-0.451 -0.751,-1.09 -0.751,-1.792 v 0 c 0,-0.696 0.282,-1.335 0.751,-1.786 v 0 l 13.037,-7.521 c 0.243,0.189 0.495,0.383 0.743,0.563 v 0 c 0.25,0.195 0.497,0.375 0.747,0.554 v 0 c 0.254,0.179 0.504,0.36 0.758,0.538 v 0 c 0.254,0.186 0.506,0.352 0.764,0.526 v 0 c 0.052,0.028 0.1,0.06 0.147,0.094 v 0 c 0.424,0.291 0.863,0.569 1.298,0.838 v 0 c 0.035,0.024 0.074,0.041 0.108,0.072 v 0 c 0.261,0.163 0.525,0.327 0.786,0.473 v 0 c 0.265,0.164 0.53,0.327 0.795,0.472 v 0 0 c 0.717,0.416 1.438,0.814 2.166,1.188 v 0 c 0.364,0.19 0.732,0.375 1.105,0.554 v 0 c 0.361,0.189 0.728,0.366 1.096,0.538 v 0 h 0.006 c 1.676,0.784 3.366,1.492 5.082,2.126 v 0 c 1.902,0.702 3.829,1.305 5.752,1.817 v 0 c 0.5,0.14 1.003,0.269 1.507,0.392 v 0 c 1.947,0.489 3.896,0.902 5.853,1.231 v 0 c 1.587,0.274 3.17,0.504 4.755,0.699 v 0 c 4.053,0.506 8.116,0.751 12.149,0.807 v 0 c 2.451,0.026 4.873,-0.01 7.3,-0.107 v 0 c 0.612,-0.023 1.223,-0.055 1.839,-0.084 v 0 c 0.278,-0.018 0.543,-0.026 0.819,-0.05 v 0 c 1.173,-0.058 2.351,-0.142 3.525,-0.237 v 0 c 0.622,-0.052 1.247,-0.104 1.869,-0.157 v 0 c 1.137,-0.106 2.265,-0.22 3.394,-0.349 v 0 c 0.581,-0.065 1.16,-0.131 1.744,-0.204 v 0 c 1.165,-0.141 2.33,-0.293 3.486,-0.453 v 0 c 1.85,-0.256 3.672,-0.56 5.524,-0.862 v 0 h 0.004 c -0.037,0.041 -0.067,0.077 -0.108,0.115 v 0 c -0.034,0.035 -0.073,0.069 -0.114,0.108 v 0 c -0.043,0.034 -0.086,0.073 -0.127,0.106 v 0 c -0.041,0.032 -0.084,0.064 -0.127,0.096 v 0 l -18.607,10.739 -0.463,0.26 -9.704,5.606 -0.004,0.01 c 0,0 -0.006,0 -0.006,0 v 0 l -0.39,0.225 -0.088,0.051 -1.486,0.861 -0.864,0.507 -0.008,0.01 h -0.007 l -2.03,1.173 -1.394,0.805 -0.064,0.034 -4.856,2.804 -1.215,0.7 c -0.094,0.056 -0.194,0.106 -0.29,0.153 v 0 c -0.199,0.092 -0.394,0.175 -0.603,0.241 v 0 c -0.513,0.175 -1.045,0.259 -1.581,0.259 v 0 c -0.573,0 -1.143,-0.099 -1.688,-0.299" />
    </clipPath>
    <linearGradient
       id="linearGradient6378"
       spreadMethod="pad"
       gradientTransform="matrix(44.138897,-44.138897,44.138897,44.138897,102.12423,8536.4492)"
       gradientUnits="userSpaceOnUse"
       y2="0"
       x2="1"
       y1="0"
       x1="0">
      <stop
         id="stop6372"
         offset="0"
         style="stop-opacity:1;stop-color:#ffea00" />
      <stop
         id="stop6374"
         offset="0.00248382"
         style="stop-opacity:1;stop-color:#ffea00" />
      <stop
         id="stop6376"
         offset="1"
         style="stop-opacity:1;stop-color:#f49a00" />
    </linearGradient>
    <clipPath
       id="clipPath6388"
       clipPathUnits="userSpaceOnUse">
      <path
         inkscape:connector-curvature="0"
         id="path6386"
         d="m 135.817,8508.781 c -3.856,-0.425 -7.687,-1.055 -11.422,-1.917 v 0 c -3.748,-0.843 -7.427,-1.899 -10.926,-3.269 v 0 c -5.53,-2.063 -10.633,-4.907 -14.966,-8.481 v 0 l 20.697,-11.953 c 1.355,-0.488 2.886,-0.368 4.155,0.355 v 0 l 41.19,23.79 c 0.626,0.407 1.051,1.095 1.106,1.87 v 0 c -2.122,0.165 -4.256,0.287 -6.376,0.373 v 0 c -2.337,0.088 -4.679,0.139 -7.016,0.139 v 0 c -5.516,0 -11.014,-0.275 -16.442,-0.907" />
    </clipPath>
    <linearGradient
       id="linearGradient6400"
       spreadMethod="pad"
       gradientTransform="matrix(26.963495,-26.963495,26.963495,26.963495,115.82066,8512.4365)"
       gradientUnits="userSpaceOnUse"
       y2="0"
       x2="1"
       y1="0"
       x1="0">
      <stop
         id="stop6394"
         offset="0"
         style="stop-opacity:1;stop-color:#ffea00" />
      <stop
         id="stop6396"
         offset="0.00248382"
         style="stop-opacity:1;stop-color:#ffea00" />
      <stop
         id="stop6398"
         offset="1"
         style="stop-opacity:1;stop-color:#f49a00" />
    </linearGradient>
    <clipPath
       id="clipPath6410"
       clipPathUnits="userSpaceOnUse">
      <path
         inkscape:connector-curvature="0"
         id="path6408"
         d="m 135.817,8508.78 c -3.855,-0.423 -7.687,-1.052 -11.422,-1.917 v 0 c -3.748,-0.842 -7.427,-1.899 -10.926,-3.269 v 0 c -5.53,-2.063 -10.633,-4.905 -14.966,-8.479 v 0 l 20.697,-11.953 c 1.355,-0.49 2.886,-0.37 4.155,0.352 v 0 l 41.19,23.793 c 0.626,0.405 1.051,1.093 1.106,1.87 v 0 c -2.122,0.163 -4.256,0.287 -6.376,0.371 v 0 c -2.337,0.088 -4.678,0.141 -7.016,0.141 v 0 c -5.516,0 -11.014,-0.274 -16.442,-0.909" />
    </clipPath>
    <linearGradient
       id="linearGradient6426"
       spreadMethod="pad"
       gradientTransform="matrix(37.527794,-37.527794,37.527794,37.527794,115.82066,8512.4365)"
       gradientUnits="userSpaceOnUse"
       y2="0"
       x2="1"
       y1="0"
       x1="0">
      <stop
         id="stop6416"
         offset="0"
         style="stop-opacity:1;stop-color:#005f27" />
      <stop
         id="stop6418"
         offset="0.0319185"
         style="stop-opacity:1;stop-color:#005f27" />
      <stop
         id="stop6420"
         offset="0.27242984"
         style="stop-opacity:1;stop-color:#005f27" />
      <stop
         id="stop6422"
         offset="0.943668"
         style="stop-opacity:1;stop-color:#acc90d" />
      <stop
         id="stop6424"
         offset="1"
         style="stop-opacity:1;stop-color:#acc90d" />
    </linearGradient>
    <clipPath
       id="clipPath6436"
       clipPathUnits="userSpaceOnUse">
      <path
         inkscape:connector-curvature="0"
         id="path6434"
         d="m 138.57,8552.44 c -1.426,0 -2.588,-1.152 -2.588,-2.572 v 0 -2.491 l 9.495,-8.289 v 0 0 10.777 c 0,1.42 -1.146,2.572 -2.572,2.572 v 0 h -4.335 z" />
    </clipPath>
    <linearGradient
       id="linearGradient6448"
       spreadMethod="pad"
       gradientTransform="matrix(92.739494,-41.563858,41.563858,92.739494,84.203491,8571.0977)"
       gradientUnits="userSpaceOnUse"
       y2="0"
       x2="1"
       y1="0"
       x1="0">
      <stop
         id="stop6442"
         offset="0"
         style="stop-opacity:1;stop-color:#39aae1" />
      <stop
         id="stop6444"
         offset="0.00117861"
         style="stop-opacity:1;stop-color:#39aae1" />
      <stop
         id="stop6446"
         offset="1"
         style="stop-opacity:1;stop-color:#1b3a6b" />
    </linearGradient>
    <clipPath
       id="clipPath6458"
       clipPathUnits="userSpaceOnUse">
      <path
         inkscape:connector-curvature="0"
         id="path6456"
         d="m 117.956,8554.683 -27.178,-23.714 c 0,-0.015 0,-0.015 -0.017,-0.03 v 0 l -0.652,-0.562 c -1.587,-1.393 -0.605,-4.016 1.516,-4.016 v 0 h 4.422 v -22.145 c 0.711,0.409 1.437,0.813 2.166,1.188 v 0 c 0.362,0.186 0.73,0.372 1.101,0.556 v 0 c 0.366,0.186 0.732,0.357 1.1,0.536 v 0 h 0.006 c 1.673,0.79 3.366,1.498 5.08,2.125 v 0 c 1.903,0.702 3.826,1.301 5.753,1.811 v 0 c 0.5,0.144 1.004,0.276 1.507,0.401 v 0 c 1.947,0.488 3.896,0.899 5.855,1.231 v 0 c 1.585,0.274 3.169,0.508 4.752,0.696 v 0 c 4.054,0.506 8.118,0.754 12.15,0.807 v 0 c 2.451,0.033 4.873,0 7.3,-0.105 v 0 c 0.611,-0.026 1.223,-0.059 1.839,-0.089 v 0 c 0.275,-0.017 0.544,-0.025 0.82,-0.047 v 0 13.035 h 4.431 c 0.997,0 1.736,0.567 2.078,1.337 v 0 c 0.394,0.862 0.278,1.945 -0.56,2.679 v 0 l -5.949,5.195 -9.493,8.282 -12.405,10.829 c -0.812,0.706 -1.811,1.056 -2.812,1.056 v 0 c -1.001,0 -2.003,-0.35 -2.81,-1.056" />
    </clipPath>
    <linearGradient
       id="linearGradient6470"
       spreadMethod="pad"
       gradientTransform="matrix(92.73999,-41.564079,41.564079,92.73999,74.920326,8550.3828)"
       gradientUnits="userSpaceOnUse"
       y2="0"
       x2="1"
       y1="0"
       x1="0">
      <stop
         id="stop6464"
         offset="0"
         style="stop-opacity:1;stop-color:#39aae1" />
      <stop
         id="stop6466"
         offset="0.00117861"
         style="stop-opacity:1;stop-color:#39aae1" />
      <stop
         id="stop6468"
         offset="1"
         style="stop-opacity:1;stop-color:#1b3a6b" />
    </linearGradient>
    <clipPath
       id="clipPath6480"
       clipPathUnits="userSpaceOnUse">
      <path
         inkscape:connector-curvature="0"
         id="path6478"
         d="M 0,0 H 1080.001 V 11662.898 H 0 Z" />
    </clipPath>
  </defs>
  <sodipodi:namedview
     id="base"
     pagecolor="#ffffff"
     bordercolor="#666666"
     borderopacity="1.0"
     inkscape:pageopacity="0.0"
     inkscape:pageshadow="2"
     inkscape:zoom="0.7"
     inkscape:cx="509.99607"
     inkscape:cy="443.5671"
     inkscape:document-units="mm"
     inkscape:current-layer="layer1"
     showgrid="false"
     units="px"
     inkscape:pagecheckerboard="true"
     inkscape:window-width="1920"
     inkscape:window-height="1056"
     inkscape:window-x="0"
     inkscape:window-y="0"
     inkscape:window-maximized="1" />
  <metadata
     id="metadata13433">
    <rdf:RDF>
      <cc:Work
         rdf:about="">
        <dc:format>image/svg+xml</dc:format>
        <dc:type
           rdf:resource="http://purl.org/dc/dcmitype/StillImage" />
        <dc:title></dc:title>
      </cc:Work>
    </rdf:RDF>
  </metadata>
  <g
     inkscape:label="Camada 1"
     inkscape:groupmode="layer"
     id="layer1"
     transform="translate(0,-204.39589)">
    <g
       id="g13278"
       transform="matrix(0.90519108,0,0,0.90519108,-64.401149,1830.5717)">
      <g
         style="fill:#2b2392;fill-opacity:1"
         transform="translate(12.85119,-3.0238095)"
         id="g13169">
        <path
           d="m 156.09915,-1735.3054 h 4.38715 v -55.1159 h -4.38715 z"
           style="fill:#2b2392;fill-opacity:1;fill-rule:nonzero;stroke:none;stroke-width:0.35277778"
           id="path882"
           inkscape:connector-curvature="0" />
        <path
           d="m 165.07735,-1735.3054 h 4.38714 v -55.1159 h -4.38714 z"
           style="fill:#2b2392;fill-opacity:1;fill-rule:nonzero;stroke:none;stroke-width:0.35277778"
           id="path884"
           inkscape:connector-curvature="0" />
        <path
           d="m 174.05554,-1735.3054 h 4.38679 v -55.1159 h -4.38679 z"
           style="fill:#2b2392;fill-opacity:1;fill-rule:nonzero;stroke:none;stroke-width:0.35277778"
           id="path886"
           inkscape:connector-curvature="0" />
        <path
           d="m 187.42053,-1735.3054 h -4.38679 v -27.5579 h 4.38679 z"
           style="fill:#2b2392;fill-opacity:1;fill-rule:nonzero;stroke:none;stroke-width:0.35277778"
           id="path888"
           inkscape:connector-curvature="0" />
        <path
           d="m 192.01193,-1735.3054 h 4.38714 v -55.1159 h -4.38714 z"
           style="fill:#2b2392;fill-opacity:1;fill-rule:nonzero;stroke:none;stroke-width:0.35277778"
           id="path890"
           inkscape:connector-curvature="0" />
        <path
           d="m 200.98977,-1763.2507 h 4.38679 v -27.1709 h -4.38679 z"
           style="fill:#2b2392;fill-opacity:1;fill-rule:nonzero;stroke:none;stroke-width:0.35277778"
           id="path892"
           inkscape:connector-curvature="0" />
        <g
           style="fill:#2b2392;fill-opacity:1"
           id="g902"
           transform="matrix(0.35277777,0,0,-0.35277777,210.03884,-1744.4515)">
          <path
             d="m 0,0 c 0,2.472 -0.911,4.425 -2.734,5.853 -1.822,1.423 -4.401,2.139 -7.732,2.139 H -22.913 V -8.464 h 12.29 c 1.528,0 2.941,0.192 4.245,0.575 1.301,0.382 2.422,0.929 3.358,1.647 0.937,0.711 1.674,1.585 2.213,2.609 C -0.269,-2.603 0,-1.429 0,-0.105 Z m 0.625,-26.015 -11.612,15.106 h -11.926 v -15.106 h -2.709 v 36.456 h 15.311 c 1.979,0 3.768,-0.253 5.366,-0.756 1.594,-0.5 2.957,-1.212 4.087,-2.132 C 0.269,6.629 1.146,5.534 1.771,4.268 2.396,3.001 2.708,1.605 2.708,0.076 v -0.101 c 0,-1.532 -0.269,-2.891 -0.807,-4.09 -0.539,-1.199 -1.284,-2.23 -2.238,-3.099 -0.955,-0.868 -2.083,-1.572 -3.386,-2.109 -1.301,-0.539 -2.716,-0.912 -4.244,-1.119 L 4.062,-26.015 Z"
             style="fill:#2b2392;fill-opacity:1;fill-rule:nonzero;stroke:none"
             id="path904"
             inkscape:connector-curvature="0" />
        </g>
        <g
           style="fill:#2b2392;fill-opacity:1"
           id="g906"
           transform="matrix(0.35277777,0,0,-0.35277777,214.28283,-1735.2744)">
          <path
             d="M 0,0 V 36.455 H 25.935 V 34.007 H 2.708 V 19.579 H 23.592 V 17.135 H 2.708 V 2.449 H 26.196 V 0 Z"
             style="fill:#2b2392;fill-opacity:1;fill-rule:nonzero;stroke:none"
             id="path908"
             inkscape:connector-curvature="0" />
        </g>
        <g
           style="fill:#2b2392;fill-opacity:1"
           id="g910"
           transform="matrix(0.35277777,0,0,-0.35277777,234.88692,-1737.1762)">
          <path
             d="m 0,0 c -0.607,-1.232 -1.441,-2.283 -2.5,-3.153 -1.061,-0.865 -2.327,-1.542 -3.802,-2.031 -1.475,-0.482 -3.098,-0.727 -4.87,-0.727 -2.916,0 -5.545,0.486 -7.89,1.457 -2.342,0.971 -4.608,2.429 -6.794,4.374 l 1.771,2.033 c 1.007,-0.939 2.004,-1.744 2.994,-2.424 0.989,-0.677 2.004,-1.232 3.045,-1.666 1.043,-0.435 2.136,-0.761 3.282,-0.986 1.145,-0.231 2.395,-0.341 3.749,-0.341 1.355,0 2.605,0.185 3.751,0.549 1.144,0.363 2.117,0.863 2.916,1.509 0.798,0.643 1.421,1.406 1.874,2.292 0.451,0.885 0.677,1.847 0.677,2.889 v 0.104 c 0,0.974 -0.148,1.839 -0.443,2.604 -0.294,0.764 -0.832,1.459 -1.614,2.082 -0.781,0.627 -1.832,1.192 -3.152,1.696 -1.318,0.5 -3.018,0.962 -5.102,1.378 -2.187,0.453 -4.062,0.982 -5.624,1.589 -1.562,0.606 -2.839,1.318 -3.829,2.134 -0.988,0.816 -1.71,1.76 -2.16,2.836 -0.453,1.076 -0.677,2.311 -0.677,3.7 v 0.103 c 0,1.354 0.294,2.613 0.885,3.775 0.589,1.165 1.406,2.178 2.448,3.047 1.04,0.869 2.273,1.547 3.697,2.031 1.423,0.488 2.986,0.728 4.687,0.728 2.639,0 4.921,-0.363 6.847,-1.094 1.929,-0.727 3.811,-1.839 5.651,-3.331 L -1.9,25.021 c -1.739,1.493 -3.482,2.552 -5.235,3.179 -1.753,0.623 -3.636,0.938 -5.649,0.938 -1.355,0 -2.579,-0.184 -3.672,-0.547 -1.094,-0.364 -2.032,-0.862 -2.814,-1.485 -0.78,-0.627 -1.378,-1.355 -1.795,-2.185 -0.418,-0.835 -0.625,-1.722 -0.625,-2.658 v -0.107 c 0,-0.969 0.148,-1.846 0.443,-2.627 0.294,-0.784 0.832,-1.496 1.614,-2.135 0.779,-0.646 1.863,-1.225 3.255,-1.748 1.388,-0.519 3.159,-1.002 5.313,-1.458 C -6.832,13.32 -3.775,12.101 -1.9,10.52 -0.025,8.938 0.911,6.812 0.911,4.141 V 4.034 C 0.911,2.576 0.605,1.229 0,0"
             style="fill:#2b2392;fill-opacity:1;fill-rule:nonzero;stroke:none"
             id="path912"
             inkscape:connector-curvature="0" />
        </g>
        <g
           style="fill:#2b2392;fill-opacity:1"
           id="g914"
           transform="matrix(0.35277777,0,0,-0.35277777,238.35028,-1735.2744)">
          <path
             d="M 0,0 V 36.455 H 25.936 V 34.007 H 2.709 V 19.579 H 23.592 V 17.135 H 2.709 V 2.449 H 26.196 V 0 Z"
             style="fill:#2b2392;fill-opacity:1;fill-rule:nonzero;stroke:none"
             id="path916"
             inkscape:connector-curvature="0" />
        </g>
        <g
           style="fill:#2b2392;fill-opacity:1"
           id="g918"
           transform="matrix(0.35277777,0,0,-0.35277777,259.69852,-1744.4515)">
          <path
             d="m 0,0 c 0,2.472 -0.912,4.425 -2.733,5.853 -1.824,1.423 -4.402,2.139 -7.733,2.139 H -22.914 V -8.464 h 12.291 c 1.527,0 2.941,0.192 4.245,0.575 1.301,0.382 2.422,0.929 3.358,1.647 0.937,0.711 1.674,1.585 2.212,2.609 C -0.27,-2.603 0,-1.429 0,-0.105 Z m 0.625,-26.015 -11.613,15.106 h -11.926 v -15.106 h -2.708 v 36.456 h 15.31 c 1.98,0 3.768,-0.253 5.366,-0.756 1.595,-0.5 2.958,-1.212 4.088,-2.132 C 0.27,6.629 1.146,5.534 1.771,4.268 2.396,3.001 2.708,1.605 2.708,0.076 v -0.101 c 0,-1.532 -0.27,-2.891 -0.808,-4.09 -0.538,-1.199 -1.284,-2.23 -2.237,-3.099 -0.956,-0.868 -2.083,-1.572 -3.387,-2.109 -1.3,-0.539 -2.715,-0.912 -4.244,-1.119 l 12.03,-15.573 z"
             style="fill:#2b2392;fill-opacity:1;fill-rule:nonzero;stroke:none"
             id="path920"
             inkscape:connector-curvature="0" />
        </g>
        <g
           style="fill:#2b2392;fill-opacity:1"
           id="g922"
           transform="matrix(0.35277777,0,0,-0.35277777,268.97615,-1735.1833)">
          <path
             d="m 0,0 h -2.395 l -16.041,36.716 h 3.022 L -1.145,3.175 13.177,36.716 h 2.865 z"
             style="fill:#2b2392;fill-opacity:1;fill-rule:nonzero;stroke:none"
             id="path924"
             inkscape:connector-curvature="0" />
        </g>
        <g
           style="fill:#2b2392;fill-opacity:1"
           id="g926"
           transform="matrix(0.35277777,0,0,-0.35277777,281.32235,-1748.2266)">
          <path
             d="m 0,0 h -2.604 l -16.978,-36.716 h 2.811 l 4.637,10.206 1.144,2.449 9.636,21.094 9.583,-21.094 1.146,-2.449 4.634,-10.206 h 2.969 z"
             style="fill:#2b2392;fill-opacity:1;fill-rule:nonzero;stroke:none"
             id="path928"
             inkscape:connector-curvature="0" />
        </g>
      </g>
      <g
         inkscape:export-ydpi="300"
         inkscape:export-xdpi="300"
         transform="matrix(1.2760514,0,0,1.2760514,6.0414233,-745.69167)"
         id="g13056">
        <g
           id="g6360"
           transform="matrix(0.35277777,0,0,-0.35277777,30.237923,2246.8603)">
          <g
             id="g6362"
             clip-path="url(#clipPath6366)">
            <g
               id="g6368">
              <g
                 id="g6370">
                <path
                   d="m 119.197,8535.63 -10.298,-5.943 -2.368,-1.371 -10.485,-6.045 -0.474,-0.277 -18.709,-10.809 c -0.469,-0.451 -0.751,-1.09 -0.751,-1.792 v 0 c 0,-0.696 0.282,-1.335 0.751,-1.786 v 0 l 13.037,-7.521 c 0.243,0.189 0.495,0.383 0.743,0.563 v 0 c 0.25,0.195 0.497,0.375 0.747,0.554 v 0 c 0.254,0.179 0.504,0.36 0.758,0.538 v 0 c 0.254,0.186 0.506,0.352 0.764,0.526 v 0 c 0.052,0.028 0.1,0.06 0.147,0.094 v 0 c 0.424,0.291 0.863,0.569 1.298,0.838 v 0 c 0.035,0.024 0.074,0.041 0.108,0.072 v 0 c 0.261,0.163 0.525,0.327 0.786,0.473 v 0 c 0.265,0.164 0.53,0.327 0.795,0.472 v 0 0 c 0.717,0.416 1.438,0.814 2.166,1.188 v 0 c 0.364,0.19 0.732,0.375 1.105,0.554 v 0 c 0.361,0.189 0.728,0.366 1.096,0.538 v 0 h 0.006 c 1.676,0.784 3.366,1.492 5.082,2.126 v 0 c 1.902,0.702 3.829,1.305 5.752,1.817 v 0 c 0.5,0.14 1.003,0.269 1.507,0.392 v 0 c 1.947,0.489 3.896,0.902 5.853,1.231 v 0 c 1.587,0.274 3.17,0.504 4.755,0.699 v 0 c 4.053,0.506 8.116,0.751 12.149,0.807 v 0 c 2.451,0.026 4.873,-0.01 7.3,-0.107 v 0 c 0.612,-0.023 1.223,-0.055 1.839,-0.084 v 0 c 0.278,-0.018 0.543,-0.026 0.819,-0.05 v 0 c 1.173,-0.058 2.351,-0.142 3.525,-0.237 v 0 c 0.622,-0.052 1.247,-0.104 1.869,-0.157 v 0 c 1.137,-0.106 2.265,-0.22 3.394,-0.349 v 0 c 0.581,-0.065 1.16,-0.131 1.744,-0.204 v 0 c 1.165,-0.141 2.33,-0.293 3.486,-0.453 v 0 c 1.85,-0.256 3.672,-0.56 5.524,-0.862 v 0 h 0.004 c -0.037,0.041 -0.067,0.077 -0.108,0.115 v 0 c -0.034,0.035 -0.073,0.069 -0.114,0.108 v 0 c -0.043,0.034 -0.086,0.073 -0.127,0.106 v 0 c -0.041,0.032 -0.084,0.064 -0.127,0.096 v 0 l -18.607,10.739 -0.463,0.26 -9.704,5.606 -0.004,0.01 c 0,0 -0.006,0 -0.006,0 v 0 l -0.39,0.225 -0.088,0.051 -1.486,0.861 -0.864,0.507 -0.008,0.01 h -0.007 l -2.03,1.173 -1.394,0.805 -0.064,0.034 -4.856,2.804 -1.215,0.7 c -0.094,0.056 -0.194,0.106 -0.29,0.153 v 0 c -0.199,0.092 -0.394,0.175 -0.603,0.241 v 0 c -0.513,0.175 -1.045,0.259 -1.581,0.259 v 0 c -0.573,0 -1.143,-0.099 -1.688,-0.299"
                   style="fill:url(#linearGradient6378);stroke:none"
                   id="path6380"
                   inkscape:connector-curvature="0" />
              </g>
            </g>
          </g>
        </g>
        <g
           id="g6382"
           transform="matrix(0.35277777,0,0,-0.35277777,30.237923,2246.8603)">
          <g
             id="g6384"
             clip-path="url(#clipPath6388)">
            <g
               id="g6390">
              <g
                 id="g6392">
                <path
                   d="m 135.817,8508.781 c -3.856,-0.425 -7.687,-1.055 -11.422,-1.917 v 0 c -3.748,-0.843 -7.427,-1.899 -10.926,-3.269 v 0 c -5.53,-2.063 -10.633,-4.907 -14.966,-8.481 v 0 l 20.697,-11.953 c 1.355,-0.488 2.886,-0.368 4.155,0.355 v 0 l 41.19,23.79 c 0.626,0.407 1.051,1.095 1.106,1.87 v 0 c -2.122,0.165 -4.256,0.287 -6.376,0.373 v 0 c -2.337,0.088 -4.679,0.139 -7.016,0.139 v 0 c -5.516,0 -11.014,-0.275 -16.442,-0.907"
                   style="fill:url(#linearGradient6400);stroke:none"
                   id="path6402"
                   inkscape:connector-curvature="0" />
              </g>
            </g>
          </g>
        </g>
        <g
           id="g6404"
           transform="matrix(0.35277777,0,0,-0.35277777,30.237923,2246.8603)">
          <g
             id="g6406"
             clip-path="url(#clipPath6410)">
            <g
               id="g6412">
              <g
                 id="g6414">
                <path
                   d="m 135.817,8508.78 c -3.855,-0.423 -7.687,-1.052 -11.422,-1.917 v 0 c -3.748,-0.842 -7.427,-1.899 -10.926,-3.269 v 0 c -5.53,-2.063 -10.633,-4.905 -14.966,-8.479 v 0 l 20.697,-11.953 c 1.355,-0.49 2.886,-0.37 4.155,0.352 v 0 l 41.19,23.793 c 0.626,0.405 1.051,1.093 1.106,1.87 v 0 c -2.122,0.163 -4.256,0.287 -6.376,0.371 v 0 c -2.337,0.088 -4.678,0.141 -7.016,0.141 v 0 c -5.516,0 -11.014,-0.274 -16.442,-0.909"
                   style="fill:url(#linearGradient6426);stroke:none"
                   id="path6428"
                   inkscape:connector-curvature="0" />
              </g>
            </g>
          </g>
        </g>
        <g
           id="g6430"
           transform="matrix(0.35277777,0,0,-0.35277777,30.237923,2246.8603)">
          <g
             id="g6432"
             clip-path="url(#clipPath6436)">
            <g
               id="g6438">
              <g
                 id="g6440">
                <path
                   d="m 138.57,8552.44 c -1.426,0 -2.588,-1.152 -2.588,-2.572 v 0 -2.491 l 9.495,-8.289 v 0 0 10.777 c 0,1.42 -1.146,2.572 -2.572,2.572 v 0 h -4.335 z"
                   style="fill:url(#linearGradient6448);stroke:none"
                   id="path6450"
                   inkscape:connector-curvature="0" />
              </g>
            </g>
          </g>
        </g>
        <g
           clip-path="url(#clipPath6458)"
           id="g6454"
           transform="matrix(0.35277777,0,0,-0.35277777,30.237923,2246.8603)">
          <g
             id="g6460">
            <g
               id="g6462">
              <path
                 inkscape:connector-curvature="0"
                 id="path6472"
                 style="fill:url(#linearGradient6470);stroke:none"
                 d="m 117.956,8554.683 -27.178,-23.714 c 0,-0.015 0,-0.015 -0.017,-0.03 v 0 l -0.652,-0.562 c -1.587,-1.393 -0.605,-4.016 1.516,-4.016 v 0 h 4.422 v -22.145 c 0.711,0.409 1.437,0.813 2.166,1.188 v 0 c 0.362,0.186 0.73,0.372 1.101,0.556 v 0 c 0.366,0.186 0.732,0.357 1.1,0.536 v 0 h 0.006 c 1.673,0.79 3.366,1.498 5.08,2.125 v 0 c 1.903,0.702 3.826,1.301 5.753,1.811 v 0 c 0.5,0.144 1.004,0.276 1.507,0.401 v 0 c 1.947,0.488 3.896,0.899 5.855,1.231 v 0 c 1.585,0.274 3.169,0.508 4.752,0.696 v 0 c 4.054,0.506 8.118,0.754 12.15,0.807 v 0 c 2.451,0.033 4.873,0 7.3,-0.105 v 0 c 0.611,-0.026 1.223,-0.059 1.839,-0.089 v 0 c 0.275,-0.017 0.544,-0.025 0.82,-0.047 v 0 13.035 h 4.431 c 0.997,0 1.736,0.567 2.078,1.337 v 0 c 0.394,0.862 0.278,1.945 -0.56,2.679 v 0 l -5.949,5.195 -9.493,8.282 -12.405,10.829 c -0.812,0.706 -1.811,1.056 -2.812,1.056 v 0 c -1.001,0 -2.003,-0.35 -2.81,-1.056" />
            </g>
          </g>
        </g>
        <g
           clip-path="url(#clipPath6480)"
           id="g6476"
           transform="matrix(0.35277777,0,0,-0.35277777,30.237923,2246.8603)">
          <g
             transform="translate(136.022,8527.4893)"
             id="g6482">
            <path
               inkscape:connector-curvature="0"
               id="path6484"
               style="fill:#ffffff;fill-opacity:1;fill-rule:nonzero;stroke:none"
               d="m 0,0 v -3.386 c 0,-0.481 -0.392,-0.875 -0.875,-0.875 h -3.384 c -0.484,0 -0.875,0.394 -0.875,0.875 V 0 c 0,0.482 0.391,0.873 0.875,0.873 h 3.384 C -0.392,0.873 0,0.482 0,0" />
          </g>
          <g
             transform="translate(129.4971,8527.4893)"
             id="g6486">
            <path
               inkscape:connector-curvature="0"
               id="path6488"
               style="fill:#ffffff;fill-opacity:1;fill-rule:nonzero;stroke:none"
               d="m 0,0 v -3.386 c 0,-0.481 -0.392,-0.875 -0.875,-0.875 h -3.384 c -0.484,0 -0.875,0.394 -0.875,0.875 V 0 c 0,0.482 0.391,0.873 0.875,0.873 h 3.384 C -0.392,0.873 0,0.482 0,0" />
          </g>
          <g
             transform="translate(136.022,8534.0137)"
             id="g6490">
            <path
               inkscape:connector-curvature="0"
               id="path6492"
               style="fill:#ffffff;fill-opacity:1;fill-rule:nonzero;stroke:none"
               d="M 0,0 V -3.385 C 0,-3.867 -0.392,-4.26 -0.875,-4.26 h -3.384 c -0.484,0 -0.875,0.393 -0.875,0.875 V 0 c 0,0.482 0.391,0.875 0.875,0.875 h 3.384 C -0.392,0.875 0,0.482 0,0" />
          </g>
          <g
             transform="translate(129.4971,8534.0137)"
             id="g6494">
            <path
               inkscape:connector-curvature="0"
               id="path6496"
               style="fill:#ffffff;fill-opacity:1;fill-rule:nonzero;stroke:none"
               d="M 0,0 V -3.385 C 0,-3.867 -0.392,-4.26 -0.875,-4.26 h -3.384 c -0.484,0 -0.875,0.393 -0.875,0.875 V 0 c 0,0.482 0.391,0.875 0.875,0.875 h 3.384 C -0.392,0.875 0,0.482 0,0" />
          </g>
          <g
             transform="translate(118.6152,8526.1797)"
             id="g6498">
            <path
               inkscape:connector-curvature="0"
               id="path6500"
               style="fill:#ffffff;fill-opacity:1;fill-rule:nonzero;stroke:none"
               d="m 0,0 v -14.218 c -1.958,-0.335 -3.912,-0.748 -5.855,-1.238 -0.504,-0.132 -1.008,-0.263 -1.507,-0.403 -1.927,-0.512 -3.85,-1.12 -5.751,-1.826 V 0 c 0,1.207 0.971,2.186 2.172,2.186 h 8.77 C -0.971,2.186 0,1.207 0,0" />
          </g>
          <g
             transform="translate(181.3779,8520.583)"
             id="g6502">
            <path
               inkscape:connector-curvature="0"
               id="path6504"
               style="fill:#1b3a6a;fill-opacity:1;fill-rule:nonzero;stroke:none"
               d="m 0,0 c 0.229,-0.495 0.419,-1.004 0.57,-1.524 0.15,-0.523 0.26,-1.047 0.331,-1.579 -0.919,-0.335 -1.746,-0.555 -2.479,-0.663 -0.734,-0.104 -1.525,-0.159 -2.373,-0.159 -1.502,0 -2.819,0.243 -3.95,0.731 -1.131,0.484 -2.081,1.166 -2.85,2.041 -0.769,0.875 -1.348,1.913 -1.737,3.115 -0.389,1.201 -0.583,2.51 -0.583,3.925 0,1.413 0.203,2.724 0.61,3.935 0.406,1.211 0.994,2.258 1.763,3.143 0.769,0.884 1.714,1.572 2.837,2.067 1.122,0.494 2.399,0.742 3.831,0.742 0.848,0 1.63,-0.051 2.346,-0.159 0.716,-0.104 1.489,-0.327 2.32,-0.663 -0.035,-0.528 -0.141,-1.047 -0.318,-1.551 -0.177,-0.504 -0.371,-1.01 -0.584,-1.523 -0.618,0.212 -1.166,0.361 -1.643,0.45 -0.477,0.089 -1.043,0.133 -1.697,0.133 -1.697,0 -3,-0.553 -3.911,-1.656 -0.91,-1.107 -1.365,-2.744 -1.365,-4.918 0,-4.315 1.829,-6.47 5.488,-6.47 0.654,0 1.228,0.044 1.724,0.133 0.494,0.088 1.051,0.237 1.67,0.45" />
          </g>
          <g
             transform="translate(193.8389,8524.0029)"
             id="g6506">
            <path
               inkscape:connector-curvature="0"
               id="path6508"
               style="fill:#1b3a6a;fill-opacity:1;fill-rule:nonzero;stroke:none"
               d="M 0,0 -2.201,8.008 -4.507,0 Z m -4.242,12.036 c 0.371,0.055 0.724,0.094 1.06,0.12 0.336,0.028 0.707,0.039 1.114,0.039 0.353,0 0.698,-0.011 1.034,-0.039 0.335,-0.026 0.706,-0.065 1.113,-0.12 L 6.045,-7.025 C 5.32,-7.133 4.613,-7.186 3.924,-7.186 c -0.672,0 -1.326,0.053 -1.962,0.161 l -1.061,3.818 h -6.31 l -1.087,-3.818 c -0.636,-0.108 -1.246,-0.161 -1.829,-0.161 -0.654,0 -1.3,0.053 -1.936,0.161 z" />
          </g>
          <g
             transform="translate(205.5044,8525.8066)"
             id="g6510">
            <path
               inkscape:connector-curvature="0"
               id="path6512"
               style="fill:#1b3a6a;fill-opacity:1;fill-rule:nonzero;stroke:none"
               d="m 0,0 c -0.602,0.229 -1.14,0.48 -1.617,0.756 -0.478,0.272 -0.884,0.598 -1.22,0.979 -0.336,0.38 -0.597,0.835 -0.782,1.367 -0.186,0.53 -0.278,1.167 -0.278,1.909 0,0.9 0.154,1.695 0.463,2.385 0.309,0.69 0.747,1.268 1.313,1.738 0.565,0.468 1.246,0.82 2.041,1.059 0.796,0.24 1.688,0.359 2.678,0.359 0.902,0 1.745,-0.079 2.532,-0.239 C 5.917,10.153 6.743,9.924 7.609,9.623 7.503,8.599 7.22,7.591 6.761,6.602 6.496,6.706 6.226,6.812 5.952,6.92 5.678,7.024 5.386,7.113 5.077,7.185 4.768,7.255 4.418,7.312 4.03,7.356 3.641,7.4 3.199,7.424 2.704,7.424 2.403,7.424 2.099,7.396 1.79,7.344 1.48,7.29 1.202,7.192 0.955,7.052 0.707,6.909 0.503,6.702 0.345,6.429 0.186,6.154 0.105,5.797 0.105,5.354 0.105,5.002 0.167,4.705 0.292,4.467 0.415,4.229 0.583,4.024 0.795,3.856 1.007,3.688 1.246,3.548 1.511,3.434 1.776,3.317 2.041,3.207 2.307,3.102 L 3.897,2.491 C 4.569,2.227 5.179,1.951 5.727,1.67 6.274,1.387 6.738,1.037 7.119,0.622 7.499,0.206 7.795,-0.298 8.007,-0.89 8.219,-1.48 8.325,-2.211 8.325,-3.076 8.325,-3.979 8.161,-4.8 7.834,-5.543 7.507,-6.284 7.034,-6.921 6.416,-7.45 5.797,-7.98 5.033,-8.396 4.123,-8.696 3.212,-8.997 2.165,-9.147 0.981,-9.147 c -0.584,0 -1.105,0.017 -1.564,0.052 -0.46,0.035 -0.897,0.093 -1.313,0.172 -0.416,0.079 -0.827,0.182 -1.232,0.306 -0.407,0.124 -0.832,0.273 -1.273,0.451 0.053,0.512 0.15,1.047 0.291,1.604 0.142,0.555 0.309,1.118 0.504,1.682 0.742,-0.301 1.44,-0.525 2.094,-0.676 0.654,-0.149 1.353,-0.224 2.095,-0.224 1.114,0 1.989,0.208 2.625,0.623 0.636,0.415 0.954,1.048 0.954,1.894 0,0.425 -0.075,0.78 -0.225,1.062 -0.15,0.282 -0.345,0.52 -0.583,0.716 -0.239,0.194 -0.508,0.357 -0.809,0.491 -0.301,0.132 -0.609,0.26 -0.928,0.384 z" />
          </g>
          <g
             transform="translate(225.2822,8524.0029)"
             id="g6514">
            <path
               inkscape:connector-curvature="0"
               id="path6516"
               style="fill:#1b3a6a;fill-opacity:1;fill-rule:nonzero;stroke:none"
               d="M 0,0 -2.201,8.008 -4.507,0 Z m -4.242,12.036 c 0.371,0.055 0.724,0.094 1.06,0.12 0.336,0.028 0.707,0.039 1.114,0.039 0.353,0 0.698,-0.011 1.034,-0.039 0.336,-0.026 0.707,-0.065 1.114,-0.12 L 6.045,-7.025 C 5.32,-7.133 4.613,-7.186 3.924,-7.186 c -0.672,0 -1.325,0.053 -1.962,0.161 l -1.061,3.818 h -6.31 l -1.087,-3.818 c -0.636,-0.108 -1.246,-0.161 -1.829,-0.161 -0.654,0 -1.299,0.053 -1.935,0.161 z" />
          </g>
          <g
             transform="translate(237.7163,8536.04)"
             id="g6518">
            <path
               inkscape:connector-curvature="0"
               id="path6520"
               style="fill:#1b3a6a;fill-opacity:1;fill-rule:nonzero;stroke:none"
               d="M 0,0 C 0.3,0.034 0.645,0.069 1.034,0.105 1.422,0.142 1.767,0.158 2.068,0.158 2.74,0.158 3.447,0.105 4.189,0 L 8.352,-15.032 12.567,0 c 0.353,0.054 0.694,0.089 1.021,0.105 0.327,0.018 0.658,0.028 0.994,0.028 0.318,0 0.641,-0.01 0.968,-0.028 C 15.876,0.089 16.217,0.054 16.57,0 l -6.15,-19.062 c -0.372,-0.053 -0.73,-0.093 -1.074,-0.121 -0.345,-0.025 -0.712,-0.04 -1.1,-0.04 -0.354,0 -0.699,0.015 -1.035,0.04 -0.336,0.028 -0.707,0.068 -1.113,0.121 z" />
          </g>
          <g
             transform="translate(256.4072,8536.04)"
             id="g6522">
            <path
               inkscape:connector-curvature="0"
               id="path6524"
               style="fill:#1b3a6a;fill-opacity:1;fill-rule:nonzero;stroke:none"
               d="m 0,0 h 10.818 c 0.106,-0.53 0.159,-1.069 0.159,-1.617 0,-0.583 -0.053,-1.141 -0.159,-1.67 H 3.871 v -4.137 h 5.515 c 0.106,-0.565 0.159,-1.113 0.159,-1.643 0,-0.567 -0.053,-1.122 -0.159,-1.67 H 3.871 v -5.038 h 7.132 c 0.106,-0.531 0.159,-1.071 0.159,-1.618 0,-0.584 -0.053,-1.139 -0.159,-1.669 H 0 Z" />
          </g>
          <g
             transform="translate(270.6714,8536.04)"
             id="g6526">
            <path
               inkscape:connector-curvature="0"
               id="path6528"
               style="fill:#1b3a6a;fill-opacity:1;fill-rule:nonzero;stroke:none"
               d="m 0,0 c 0.778,0.089 1.507,0.162 2.187,0.226 0.68,0.06 1.436,0.091 2.267,0.091 0.972,0 1.931,-0.088 2.877,-0.263 0.945,-0.178 1.798,-0.491 2.558,-0.943 0.76,-0.451 1.375,-1.059 1.843,-1.829 0.468,-0.768 0.703,-1.746 0.703,-2.928 0,-0.708 -0.089,-1.333 -0.266,-1.871 -0.176,-0.54 -0.402,-1.011 -0.675,-1.419 -0.275,-0.406 -0.571,-0.754 -0.889,-1.045 -0.318,-0.292 -0.619,-0.528 -0.901,-0.705 l -0.451,-0.292 4.64,-8.058 c -0.354,-0.035 -0.725,-0.07 -1.114,-0.107 -0.389,-0.035 -0.786,-0.052 -1.193,-0.052 -0.672,0 -1.335,0.052 -1.988,0.159 l -4.985,8.854 0.637,0.32 c 0.247,0.123 0.547,0.282 0.901,0.476 0.353,0.195 0.694,0.438 1.021,0.73 0.327,0.292 0.605,0.644 0.835,1.059 0.229,0.415 0.345,0.907 0.345,1.473 0,1.112 -0.319,1.931 -0.955,2.451 -0.636,0.523 -1.458,0.782 -2.466,0.782 -0.389,0 -0.742,-0.025 -1.06,-0.079 v -16.092 c -0.318,-0.037 -0.637,-0.068 -0.955,-0.093 -0.318,-0.028 -0.627,-0.04 -0.928,-0.04 -0.3,0 -0.618,0.008 -0.954,0.025 -0.336,0.02 -0.68,0.055 -1.034,0.108 z" />
          </g>
          <g
             transform="translate(290.6621,8520.0527)"
             id="g6530">
            <path
               inkscape:connector-curvature="0"
               id="path6532"
               style="fill:#1b3a6a;fill-opacity:1;fill-rule:nonzero;stroke:none"
               d="m 0,0 c 0.159,-0.019 0.362,-0.035 0.61,-0.054 0.247,-0.016 0.547,-0.025 0.901,-0.025 0.813,0 1.569,0.093 2.267,0.277 0.698,0.187 1.303,0.527 1.816,1.022 0.512,0.495 0.919,1.157 1.219,1.987 0.301,0.831 0.451,1.9 0.451,3.21 0,1.271 -0.15,2.333 -0.451,3.181 -0.3,0.847 -0.707,1.519 -1.219,2.014 -0.513,0.494 -1.1,0.844 -1.763,1.047 -0.663,0.203 -1.366,0.306 -2.108,0.306 -0.248,0 -0.535,-0.004 -0.862,-0.014 C 0.534,12.941 0.247,12.921 0,12.886 Z m -3.897,15.986 c 0.742,0.089 1.52,0.163 2.333,0.227 0.813,0.06 1.713,0.093 2.704,0.093 3.34,0 5.881,-0.831 7.622,-2.493 1.741,-1.662 2.612,-4.154 2.612,-7.476 0,-3.342 -0.884,-5.799 -2.652,-7.371 -1.767,-1.573 -4.392,-2.361 -7.874,-2.361 -0.901,0 -1.732,0.033 -2.492,0.093 -0.76,0.064 -1.511,0.139 -2.253,0.227 z" />
          </g>
          <g
             transform="translate(305.2437,8536.04)"
             id="g6534">
            <path
               inkscape:connector-curvature="0"
               id="path6536"
               style="fill:#1b3a6a;fill-opacity:1;fill-rule:nonzero;stroke:none"
               d="m 0,0 h 10.818 c 0.106,-0.53 0.159,-1.069 0.159,-1.617 0,-0.583 -0.053,-1.141 -0.159,-1.67 H 3.871 v -4.137 h 5.515 c 0.106,-0.565 0.159,-1.113 0.159,-1.643 0,-0.567 -0.053,-1.122 -0.159,-1.67 H 3.871 v -5.038 h 7.132 c 0.106,-0.531 0.159,-1.071 0.159,-1.618 0,-0.584 -0.053,-1.139 -0.159,-1.669 H 0 Z" />
          </g>
          <g
             transform="translate(168.7842,8509.5273)"
             id="g6538">
            <path
               inkscape:connector-curvature="0"
               id="path6540"
               style="fill:#1b3a6a;fill-opacity:1;fill-rule:nonzero;stroke:none"
               d="m 0,0 h 10.817 c 0.106,-0.53 0.159,-1.069 0.159,-1.617 0,-0.583 -0.053,-1.142 -0.159,-1.67 H 3.871 v -4.138 h 5.514 c 0.106,-0.564 0.159,-1.112 0.159,-1.642 0,-0.567 -0.053,-1.123 -0.159,-1.67 H 3.871 v -5.038 h 7.132 c 0.106,-0.532 0.159,-1.071 0.159,-1.619 0,-0.583 -0.053,-1.138 -0.159,-1.668 H 0 Z" />
          </g>
          <g
             transform="translate(197.3643,8497.4902)"
             id="g6542">
            <path
               inkscape:connector-curvature="0"
               id="path6544"
               style="fill:#1b3a6a;fill-opacity:1;fill-rule:nonzero;stroke:none"
               d="M 0,0 -2.201,8.007 -4.507,0 Z m -4.242,12.036 c 0.371,0.054 0.724,0.094 1.06,0.119 0.336,0.029 0.707,0.04 1.114,0.04 0.353,0 0.698,-0.011 1.034,-0.04 0.336,-0.025 0.707,-0.065 1.114,-0.119 L 6.045,-7.025 C 5.32,-7.133 4.613,-7.186 3.924,-7.186 c -0.672,0 -1.325,0.053 -1.962,0.161 l -1.061,3.817 h -6.31 l -1.087,-3.817 c -0.636,-0.108 -1.246,-0.161 -1.829,-0.161 -0.654,0 -1.299,0.053 -1.935,0.161 z" />
          </g>
          <g
             transform="translate(206.0869,8509.5273)"
             id="g6546">
            <path
               inkscape:connector-curvature="0"
               id="path6548"
               style="fill:#1b3a6a;fill-opacity:1;fill-rule:nonzero;stroke:none"
               d="M 0,0 C 0.707,0.105 1.387,0.158 2.042,0.158 2.73,0.158 3.411,0.105 4.083,0 L 8.458,-10.924 12.965,0 c 0.547,0.105 1.157,0.158 1.829,0.158 0.672,0 1.317,-0.053 1.935,-0.158 l 0.902,-19.062 c -0.672,-0.108 -1.308,-0.161 -1.909,-0.161 -0.601,0 -1.193,0.053 -1.776,0.161 l -0.478,12.937 -3.87,-8.962 c -0.248,-0.034 -0.504,-0.065 -0.769,-0.093 -0.266,-0.025 -0.53,-0.04 -0.796,-0.04 -0.229,0 -0.459,0.009 -0.689,0.029 -0.23,0.015 -0.469,0.051 -0.716,0.104 L 3.022,-5.938 2.651,-19.062 c -0.566,-0.108 -1.113,-0.161 -1.644,-0.161 -0.566,0 -1.149,0.053 -1.75,0.161 z" />
          </g>
          <g
             transform="translate(235.8872,8497.4902)"
             id="g6550">
            <path
               inkscape:connector-curvature="0"
               id="path6552"
               style="fill:#1b3a6a;fill-opacity:1;fill-rule:nonzero;stroke:none"
               d="M 0,0 -2.201,8.007 -4.507,0 Z m -4.242,12.036 c 0.371,0.054 0.724,0.094 1.06,0.119 0.336,0.029 0.707,0.04 1.114,0.04 0.353,0 0.698,-0.011 1.034,-0.04 0.335,-0.025 0.706,-0.065 1.113,-0.119 L 6.045,-7.025 C 5.32,-7.133 4.613,-7.186 3.924,-7.186 c -0.673,0 -1.326,0.053 -1.962,0.161 l -1.061,3.817 h -6.31 l -1.087,-3.817 c -0.636,-0.108 -1.246,-0.161 -1.829,-0.161 -0.654,0 -1.299,0.053 -1.936,0.161 z" />
          </g>
          <g
             transform="translate(244.2646,8509.5273)"
             id="g6554">
            <path
               inkscape:connector-curvature="0"
               id="path6556"
               style="fill:#1b3a6a;fill-opacity:1;fill-rule:nonzero;stroke:none"
               d="m 0,0 c 0.777,0.088 1.507,0.162 2.187,0.226 0.68,0.06 1.436,0.091 2.267,0.091 0.972,0 1.931,-0.088 2.877,-0.264 0.945,-0.177 1.798,-0.49 2.558,-0.943 0.76,-0.45 1.375,-1.058 1.843,-1.829 0.468,-0.767 0.703,-1.745 0.703,-2.928 0,-0.707 -0.089,-1.332 -0.266,-1.871 -0.176,-0.539 -0.402,-1.01 -0.676,-1.418 -0.274,-0.407 -0.57,-0.754 -0.888,-1.046 -0.318,-0.292 -0.619,-0.527 -0.901,-0.704 l -0.451,-0.292 4.64,-8.058 c -0.354,-0.035 -0.726,-0.07 -1.114,-0.108 -0.389,-0.035 -0.786,-0.051 -1.193,-0.051 -0.672,0 -1.335,0.051 -1.988,0.159 l -4.985,8.854 0.637,0.32 c 0.247,0.123 0.547,0.282 0.901,0.475 0.353,0.196 0.693,0.439 1.02,0.731 0.328,0.291 0.606,0.643 0.836,1.059 0.229,0.415 0.345,0.907 0.345,1.472 0,1.113 -0.319,1.932 -0.955,2.452 -0.636,0.523 -1.458,0.782 -2.466,0.782 -0.389,0 -0.742,-0.025 -1.06,-0.08 V -19.062 C 3.552,-19.1 3.234,-19.13 2.916,-19.155 c -0.318,-0.028 -0.627,-0.04 -0.928,-0.04 -0.3,0 -0.618,0.008 -0.954,0.025 -0.336,0.019 -0.681,0.055 -1.034,0.108 z" />
          </g>
          <g
             transform="translate(260.2778,8509.5273)"
             id="g6558">
            <path
               inkscape:connector-curvature="0"
               id="path6560"
               style="fill:#1b3a6a;fill-opacity:1;fill-rule:nonzero;stroke:none"
               d="m 0,0 h 10.818 c 0.106,-0.53 0.159,-1.069 0.159,-1.617 0,-0.583 -0.053,-1.142 -0.159,-1.67 H 3.871 v -4.138 h 5.515 c 0.106,-0.564 0.159,-1.112 0.159,-1.642 0,-0.567 -0.053,-1.123 -0.159,-1.67 H 3.871 v -5.038 h 7.132 c 0.106,-0.532 0.159,-1.071 0.159,-1.619 0,-0.583 -0.053,-1.138 -0.159,-1.668 H 0 Z" />
          </g>
          <g
             transform="translate(274.356,8509.5273)"
             id="g6562">
            <path
               inkscape:connector-curvature="0"
               id="path6564"
               style="fill:#1b3a6a;fill-opacity:1;fill-rule:nonzero;stroke:none"
               d="M 0,0 C 0.654,0.105 1.282,0.158 1.883,0.158 2.501,0.158 3.146,0.105 3.818,0 v -15.723 h 6.602 c 0.053,-0.3 0.088,-0.588 0.106,-0.862 0.017,-0.273 0.026,-0.534 0.026,-0.781 0,-0.282 -0.009,-0.562 -0.026,-0.835 -0.018,-0.276 -0.053,-0.563 -0.106,-0.861 H 0 Z" />
          </g>
          <g
             transform="translate(296.0972,8497.4902)"
             id="g6566">
            <path
               inkscape:connector-curvature="0"
               id="path6568"
               style="fill:#1b3a6a;fill-opacity:1;fill-rule:nonzero;stroke:none"
               d="M 0,0 -2.201,8.007 -4.507,0 Z m -4.242,12.036 c 0.371,0.054 0.724,0.094 1.06,0.119 0.336,0.029 0.707,0.04 1.114,0.04 0.353,0 0.698,-0.011 1.033,-0.04 0.336,-0.025 0.707,-0.065 1.114,-0.119 L 6.044,-7.025 C 5.32,-7.133 4.613,-7.186 3.924,-7.186 c -0.673,0 -1.326,0.053 -1.962,0.161 l -1.061,3.817 h -6.31 l -1.087,-3.817 c -0.636,-0.108 -1.246,-0.161 -1.829,-0.161 -0.654,0 -1.3,0.053 -1.936,0.161 z" />
          </g>
          <g
             transform="translate(171.4072,8550.5361)"
             id="g6570">
            <path
               inkscape:connector-curvature="0"
               id="path6572"
               style="fill:#7f8080;fill-opacity:1;fill-rule:nonzero;stroke:none"
               d="m 0,0 h -1.39 v -2.809 h 1.46 c 0.759,0 1.376,0.325 1.376,1.448 C 1.446,-0.112 0.716,0 0,0 M 0.183,-4.171 H -1.39 v -3.553 h -1.769 v 9.085 h 3.187 c 1.853,0 3.216,-0.644 3.216,-2.722 0,-2.066 -1.236,-2.81 -3.061,-2.81" />
          </g>
          <g
             transform="translate(180.1396,8550.5361)"
             id="g6574">
            <path
               inkscape:connector-curvature="0"
               id="path6576"
               style="fill:#7f8080;fill-opacity:1;fill-rule:nonzero;stroke:none"
               d="m 0,0 h -1.699 v -2.583 h 1.713 c 0.814,0 1.194,0.562 1.194,1.318 C 1.208,-0.506 0.828,0 0,0 m 1.46,-7.724 -2.766,3.779 h -0.393 v -3.779 h -1.769 v 9.085 h 3.398 c 1.446,0 3.075,-0.476 3.075,-2.626 0,-1.219 -0.548,-2.357 -2.247,-2.625 l 2.865,-3.834 z" />
          </g>
          <g
             transform="translate(189.3491,8550.7188)"
             id="g6578">
            <path
               inkscape:connector-curvature="0"
               id="path6580"
               style="fill:#7f8080;fill-opacity:1;fill-rule:nonzero;stroke:none"
               d="m 0,0 c -1.671,0 -2.457,-1.012 -2.457,-3.397 0,-2.499 0.772,-3.414 2.457,-3.414 1.741,0 2.415,1.153 2.415,3.414 C 2.415,-0.982 1.643,0 0,0 m 0,-8.173 c -3.271,0 -4.283,2.052 -4.283,4.776 0,2.668 1.124,4.758 4.297,4.758 3.131,0 4.227,-1.965 4.227,-4.758 0,-2.698 -1.082,-4.776 -4.241,-4.776" />
          </g>
          <g
             transform="translate(199.4287,8542.5469)"
             id="g6582">
            <path
               inkscape:connector-curvature="0"
               id="path6584"
               style="fill:#7f8080;fill-opacity:1;fill-rule:nonzero;stroke:none"
               d="m 0,0 c -3.341,0 -4.184,2.358 -4.184,4.815 0,2.794 1.264,4.718 4.311,4.718 0.632,0 1.643,-0.195 2.289,-0.364 L 1.868,7.681 C 1.32,7.919 0.759,8.172 0.141,8.172 c -1.474,0 -2.499,-0.717 -2.499,-3.357 0,-2.189 0.533,-3.454 2.4,-3.454 0.646,0 1.011,0.1 1.447,0.353 v 2.05 h -2.008 v 1.361 h 3.58 V 0.813 C 2.121,0.267 1.362,0 0,0" />
          </g>
          <g
             transform="translate(208.105,8550.5361)"
             id="g6586">
            <path
               inkscape:connector-curvature="0"
               id="path6588"
               style="fill:#7f8080;fill-opacity:1;fill-rule:nonzero;stroke:none"
               d="m 0,0 h -1.699 v -2.583 h 1.713 c 0.815,0 1.194,0.562 1.194,1.318 C 1.208,-0.506 0.829,0 0,0 m 1.46,-7.724 -2.766,3.779 h -0.393 v -3.779 h -1.769 v 9.085 h 3.398 c 1.446,0 3.075,-0.476 3.075,-2.626 0,-1.219 -0.547,-2.357 -2.247,-2.625 l 2.865,-3.834 z" />
          </g>
          <g
             transform="translate(217.1606,8549.9326)"
             id="g6590">
            <path
               inkscape:connector-curvature="0"
               id="path6592"
               style="fill:#7f8080;fill-opacity:1;fill-rule:nonzero;stroke:none"
               d="m 0,0 -1.194,-3.355 h 2.303 z m 2.373,-7.119 -0.815,2.43 h -3.244 l -0.856,-2.43 h -1.881 l 3.693,9.085 h 1.628 l 3.426,-9.085 z" />
          </g>
          <g
             transform="translate(231.8174,8542.8135)"
             id="g6594">
            <path
               inkscape:connector-curvature="0"
               id="path6596"
               style="fill:#7f8080;fill-opacity:1;fill-rule:nonzero;stroke:none"
               d="M 0,0 V 7.202 L -2.555,0 H -4.367 L -6.922,7.202 V 0 h -1.685 v 9.085 h 2.906 l 2.304,-6.713 2.358,6.713 h 2.78 L 1.741,0 Z" />
          </g>
          <g
             transform="translate(239.7065,8549.9326)"
             id="g6598">
            <path
               inkscape:connector-curvature="0"
               id="path6600"
               style="fill:#7f8080;fill-opacity:1;fill-rule:nonzero;stroke:none"
               d="m 0,0 -1.193,-3.355 h 2.302 z m 2.373,-7.119 -0.814,2.43 h -3.244 l -0.857,-2.43 h -1.881 l 3.693,9.085 h 1.629 l 3.426,-9.085 z" />
          </g>
        </g>
      </g>
    </g>
  </g>
</svg>
